<?xml version="1.0" encoding="UTF-8" standalone="no"?>
<svg width="94px" height="87px" viewBox="0 0 94 87" version="1.1" xmlns="http://www.w3.org/2000/svg" xmlns:xlink="http://www.w3.org/1999/xlink">
    <!-- Generator: Sketch 3.8.3 (29802) - http://www.bohemiancoding.com/sketch -->
    <title>Group</title>
    <desc>Created with Sketch.</desc>
    <defs></defs>
    <g id="Page-1" stroke="none" stroke-width="1" fill="none" fill-rule="evenodd">
        <g id="Group">
            <g id="visa" transform="translate(0, 5)">
                <path d="M13.628,1.011 L9.827,11.266 L9.419,9.183 C8.5,6.695 6.71,4.423 4.041,2.902 L7.517,16.036 L11.628,16.036 L17.743,1.012 L13.628,1.012" id="Shape" fill="#333333"></path>
                <polyline id="Shape" fill="#333333" points="16.885 16.041 19.314 0.998 23.202 0.998 20.77 16.041 16.885 16.041"></polyline>
                <path d="M34.861,1.369 C34.091,1.064 32.881,0.734 31.381,0.734 C27.537,0.734 24.836,2.775 24.813,5.695 C24.789,7.863 26.745,9.067 28.215,9.789 C29.73,10.526 30.236,10.998 30.231,11.656 C30.219,12.661 29.019,13.119 27.903,13.119 C26.352,13.119 25.525,12.896 24.253,12.331 L23.748,12.096 L23.206,15.459 C24.114,15.885 25.79,16.243 27.536,16.266 C31.614,16.266 34.265,14.246 34.298,11.124 C34.315,9.41 33.277,8.109 31.032,7.035 C29.678,6.339 28.839,5.878 28.852,5.171 C28.854,4.546 29.555,3.878 31.08,3.878 C32.351,3.853 33.265,4.147 33.987,4.456 L34.332,4.631 L34.861,1.369" id="Shape" fill="#333333"></path>
                <path d="M44.819,1.012 L41.82,1.012 C40.888,1.012 40.191,1.283 39.781,2.26 L34.014,16.044 L38.095,16.044 C38.095,16.044 38.763,14.191 38.912,13.783 C39.358,13.783 43.319,13.791 43.884,13.791 C44.003,14.318 44.359,16.044 44.359,16.044 L47.966,16.044 L44.819,1.012 L44.819,1.012 Z M40.03,10.707 C40.355,9.845 41.579,6.503 41.579,6.503 C41.555,6.544 41.894,5.631 42.096,5.067 L42.356,6.367 C42.356,6.367 43.102,9.957 43.255,10.707 L40.03,10.707 L40.03,10.707 Z" id="Shape" fill="#333333"></path>
                <path d="M6.3,1.005 L0.036,1.005 L0,1.264 C4.87,2.508 8.083,5.572 9.418,9.186 L8.06,2.274 C7.827,1.317 7.144,1.04 6.3,1.005 L6.3,1.005 Z" id="Shape" fill="#4B4A4A"></path>
            </g>
            <g id="mastercard" transform="translate(50, 0)">
                <path fill="#4B4A4A" style="fill-rule:evenodd;clip-rule:evenodd;" d="M21.915,22.909c2.204,2.03,5.164,3.262,8.383,3.262
                    c6.914,0,12.51-5.639,12.51-12.575C42.808,6.639,37.212,1,30.298,1c-3.22,0-6.18,1.231-8.383,3.263
                    c-2.528,2.311-4.127,5.639-4.127,9.333S19.387,20.618,21.915,22.909L21.915,22.909z"></path>
                <path fill="#333333" style="fill-rule:evenodd;clip-rule:evenodd;" d="M25.956,12.257c-0.043-0.454-0.13-0.886-0.217-1.339h-7.647
                    c0.086-0.454,0.216-0.886,0.345-1.318h6.936c-0.151-0.454-0.324-0.908-0.518-1.34h-5.878c0.217-0.454,0.454-0.908,0.713-1.339
                    h4.429c-0.28-0.454-0.604-0.908-0.95-1.318H20.64c0.389-0.476,0.821-0.929,1.275-1.339C19.689,2.253,16.75,1,13.51,1
                    C6.617,1,1,6.639,1,13.596c0,6.936,5.617,12.575,12.51,12.575c3.241,0,6.18-1.231,8.405-3.262l0,0l0,0
                    c0.454-0.411,0.864-0.844,1.253-1.318H20.64c-0.346-0.433-0.648-0.864-0.951-1.34h4.429c0.281-0.432,0.519-0.863,0.735-1.34h-5.878
                    c-0.194-0.432-0.388-0.863-0.54-1.318h6.936c0.152-0.432,0.26-0.885,0.367-1.339c0.087-0.433,0.174-0.886,0.217-1.34
                    c0.043-0.433,0.064-0.864,0.064-1.318C26.02,13.143,25.999,12.689,25.956,12.257L25.956,12.257z"></path>
                <path style="fill-rule:evenodd;clip-rule:evenodd;fill:#FFFFFF;" d="M30.19,10.702l-0.237,1.382
                    c-0.476-0.237-0.821-0.346-1.21-0.346c-1.016,0-1.729,0.994-1.729,2.398c0,0.972,0.475,1.556,1.274,1.556
                    c0.323,0,0.713-0.107,1.146-0.324l-0.237,1.447c-0.497,0.13-0.821,0.195-1.188,0.195c-1.47,0-2.377-1.059-2.377-2.767
                    c0-2.268,1.253-3.867,3.047-3.867c0.236,0,0.453,0.023,0.627,0.066l0.539,0.129C30.018,10.636,30.061,10.658,30.19,10.702
                    L30.19,10.702z"></path>
                <path style="fill-rule:evenodd;clip-rule:evenodd;fill:#FFFFFF;" d="M25.826,11.651c-0.043,0-0.087,0-0.129,0
                    c-0.455,0-0.714,0.216-1.124,0.843l0.129-0.799h-1.23l-0.843,5.185h1.361c0.497-3.176,0.627-3.715,1.274-3.715
                    c0.044,0,0.044,0,0.087,0c0.129-0.627,0.303-1.081,0.52-1.491L25.826,11.651L25.826,11.651z"></path>
                <path style="fill-rule:evenodd;clip-rule:evenodd;fill:#FFFFFF;" d="M18.004,16.815c-0.367,0.13-0.669,0.174-0.972,0.174
                    c-0.692,0-1.081-0.391-1.081-1.146c0-0.13,0.021-0.303,0.043-0.454l0.086-0.519l0.065-0.411l0.583-3.542h1.339l-0.152,0.777h0.691
                    l-0.173,1.274h-0.691l-0.367,2.161c-0.022,0.086-0.022,0.15-0.022,0.217c0,0.26,0.13,0.367,0.454,0.367
                    c0.151,0,0.282,0,0.368-0.043L18.004,16.815L18.004,16.815z"></path>
                <path style="fill-rule:evenodd;clip-rule:evenodd;fill:#FFFFFF;" d="M12.796,13.337c0,0.647,0.303,1.101,1.016,1.447
                    c0.562,0.26,0.649,0.346,0.649,0.562c0,0.324-0.238,0.475-0.778,0.475c-0.41,0-0.777-0.064-1.21-0.193l-0.195,1.188l0.064,0.021
                    l0.238,0.043c0.087,0.022,0.195,0.045,0.368,0.045c0.302,0.043,0.561,0.043,0.734,0.043c1.426,0,2.096-0.541,2.096-1.729
                    c0-0.713-0.281-1.125-0.951-1.449c-0.583-0.259-0.649-0.324-0.649-0.562c0-0.281,0.238-0.411,0.67-0.411
                    c0.259,0,0.627,0.022,0.972,0.065l0.195-1.188c-0.346-0.065-0.886-0.108-1.188-0.108C13.316,11.586,12.775,12.387,12.796,13.337
                    L12.796,13.337z"></path>
                <path style="fill-rule:evenodd;clip-rule:evenodd;fill:#FFFFFF;" d="M40.54,16.88h-1.273l0.064-0.496
                    c-0.368,0.389-0.758,0.562-1.254,0.562c-0.994,0-1.643-0.843-1.643-2.14c0-1.728,1.016-3.198,2.205-3.198
                    c0.539,0,0.929,0.238,1.295,0.713l0.303-1.814h1.34L40.54,16.88L40.54,16.88z M38.551,15.671c0.627,0,1.06-0.735,1.06-1.75
                    c0-0.67-0.237-1.016-0.714-1.016c-0.604,0-1.059,0.713-1.059,1.729C37.838,15.325,38.077,15.671,38.551,15.671L38.551,15.671z"></path>
                <path style="fill-rule:evenodd;clip-rule:evenodd;fill:#FFFFFF;" d="M22.153,16.772c-0.476,0.152-0.908,0.217-1.404,0.217
                    c-1.512,0-2.291-0.8-2.291-2.334c0-1.772,0.994-3.09,2.355-3.09c1.124,0,1.836,0.735,1.836,1.88c0,0.389-0.043,0.756-0.173,1.296
                    h-2.679c-0.022,0.064-0.022,0.107-0.022,0.151c0,0.605,0.41,0.907,1.188,0.907c0.497,0,0.93-0.086,1.405-0.323L22.153,16.772
                    L22.153,16.772z M21.396,13.683c0-0.107,0-0.194,0-0.259c0-0.432-0.237-0.67-0.647-0.67c-0.433,0-0.735,0.325-0.865,0.929H21.396
                    L21.396,13.683z"></path>
                <polygon style="fill-rule:evenodd;clip-rule:evenodd;fill:#FFFFFF;" points="7.633,16.88 6.293,16.88 7.071,11.976 5.321,16.88
                    4.392,16.88 4.284,12.019 3.463,16.88 2.21,16.88 3.269,10.507 5.213,10.507 5.278,14.46 6.574,10.507 8.692,10.507 7.633,16.88
                    "></polygon>
                <path style="fill-rule:evenodd;clip-rule:evenodd;fill:#FFFFFF;" d="M10.982,14.569c-0.13,0-0.195-0.022-0.302-0.022
                    c-0.757,0-1.146,0.281-1.146,0.8c0,0.324,0.172,0.518,0.475,0.518C10.572,15.864,10.961,15.347,10.982,14.569L10.982,14.569z
                     M11.976,16.88h-1.124l0.021-0.54c-0.345,0.433-0.799,0.628-1.426,0.628c-0.734,0-1.231-0.562-1.231-1.405
                    c0-1.274,0.864-2.01,2.376-2.01c0.151,0,0.346,0.022,0.562,0.043c0.043-0.173,0.043-0.237,0.043-0.324
                    c0-0.346-0.237-0.476-0.865-0.476c-0.388,0-0.82,0.044-1.123,0.13l-0.195,0.065l-0.13,0.021l0.194-1.167
                    c0.669-0.195,1.124-0.26,1.621-0.26c1.167,0,1.792,0.52,1.792,1.513c0,0.259-0.021,0.453-0.107,1.037l-0.303,1.837l-0.043,0.323
                    l-0.022,0.259l-0.021,0.195L11.976,16.88L11.976,16.88z"></path>
                <path style="fill-rule:evenodd;clip-rule:evenodd;fill:#FFFFFF;" d="M32.372,14.569c-0.15,0-0.215-0.022-0.302-0.022
                    c-0.778,0-1.167,0.281-1.167,0.8c0,0.324,0.195,0.518,0.497,0.518C31.94,15.864,32.35,15.347,32.372,14.569L32.372,14.569z
                     M33.367,16.88h-1.124l0.021-0.54c-0.346,0.433-0.8,0.628-1.426,0.628c-0.734,0-1.231-0.562-1.231-1.405
                    c0-1.274,0.864-2.01,2.377-2.01c0.151,0,0.345,0.022,0.54,0.043c0.043-0.173,0.064-0.237,0.064-0.324
                    c0-0.346-0.238-0.476-0.864-0.476c-0.39,0-0.843,0.044-1.145,0.13l-0.174,0.065l-0.129,0.021l0.194-1.167
                    c0.67-0.195,1.123-0.26,1.62-0.26c1.167,0,1.772,0.52,1.772,1.513c0,0.259,0,0.453-0.109,1.037l-0.28,1.837l-0.043,0.323
                    l-0.043,0.259l-0.021,0.195V16.88L33.367,16.88z"></path>
                <path style="fill-rule:evenodd;clip-rule:evenodd;fill:#FFFFFF;" d="M36.997,11.651c-0.043,0-0.087,0-0.13,0
                    c-0.454,0-0.714,0.216-1.124,0.843l0.13-0.799h-1.231l-0.82,5.185h1.339c0.497-3.176,0.627-3.715,1.274-3.715
                    c0.043,0,0.043,0,0.086,0c0.13-0.627,0.303-1.081,0.52-1.491L36.997,11.651L36.997,11.651z"></path>
            </g>
            <g id="visa-blue" transform="translate(0, 65)" fill="#0851BD">
                <path d="M9.827,11.266 L9.419,9.183 C8.5,6.695 6.71,4.423 4.041,2.902 L7.517,16.036 L11.628,16.036 L17.743,1.012 L13.628,1.012 L9.827,11.266 Z" id="Shape"></path>
                <polygon id="Shape" points="19.314 0.998 23.202 0.998 20.77 16.041 16.885 16.041"></polygon>
                <path d="M34.861,1.369 C34.091,1.064 32.881,0.734 31.381,0.734 C27.537,0.734 24.836,2.775 24.813,5.695 C24.789,7.863 26.745,9.067 28.215,9.789 C29.73,10.526 30.236,10.998 30.231,11.656 C30.219,12.661 29.019,13.119 27.903,13.119 C26.352,13.119 25.525,12.896 24.253,12.331 L23.748,12.096 L23.206,15.459 C24.114,15.885 25.79,16.243 27.536,16.266 C31.614,16.266 34.265,14.246 34.298,11.124 C34.315,9.41 33.277,8.109 31.032,7.035 C29.678,6.339 28.839,5.878 28.852,5.171 C28.854,4.546 29.555,3.878 31.08,3.878 C32.351,3.853 33.265,4.147 33.987,4.456 L34.332,4.631 L34.861,1.369" id="Shape"></path>
                <path d="M44.819,1.012 L41.82,1.012 C40.888,1.012 40.191,1.283 39.781,2.26 L34.014,16.044 L38.095,16.044 C38.095,16.044 38.763,14.191 38.912,13.783 C39.358,13.783 43.319,13.791 43.884,13.791 C44.003,14.318 44.359,16.044 44.359,16.044 L47.966,16.044 L44.819,1.012 L44.819,1.012 Z M40.03,10.707 C40.355,9.845 41.579,6.503 41.579,6.503 C41.555,6.544 41.894,5.631 42.096,5.067 L42.356,6.367 C42.356,6.367 43.102,9.957 43.255,10.707 L40.03,10.707 L40.03,10.707 Z" id="Shape"></path>
                <path d="M0.036,1.005 L0,1.264 C4.87,2.508 8.083,5.572 9.418,9.186 L8.06,2.274 C7.827,1.317 7.144,1.04 6.3,1.005 L0.036,1.005 Z" id="Shape"></path>
            </g>
            <g id="mastercard-blue" transform="translate(50, 60)">
                <path fill="#095bd5" style="fill-rule:evenodd;clip-rule:evenodd;" d="M21.915,22.909c2.204,2.03,5.164,3.262,8.383,3.262
                    c6.914,0,12.51-5.639,12.51-12.575C42.808,6.639,37.212,1,30.298,1c-3.22,0-6.18,1.231-8.383,3.263
                    c-2.528,2.311-4.127,5.639-4.127,9.333S19.387,20.618,21.915,22.909L21.915,22.909z"></path>
                <path fill="#0851bd" style="fill-rule:evenodd;clip-rule:evenodd;" d="M25.956,12.257c-0.043-0.454-0.13-0.886-0.217-1.339h-7.647
                    c0.086-0.454,0.216-0.886,0.345-1.318h6.936c-0.151-0.454-0.324-0.908-0.518-1.34h-5.878c0.217-0.454,0.454-0.908,0.713-1.339
                    h4.429c-0.28-0.454-0.604-0.908-0.95-1.318H20.64c0.389-0.476,0.821-0.929,1.275-1.339C19.689,2.253,16.75,1,13.51,1
                    C6.617,1,1,6.639,1,13.596c0,6.936,5.617,12.575,12.51,12.575c3.241,0,6.18-1.231,8.405-3.262l0,0l0,0
                    c0.454-0.411,0.864-0.844,1.253-1.318H20.64c-0.346-0.433-0.648-0.864-0.951-1.34h4.429c0.281-0.432,0.519-0.863,0.735-1.34h-5.878
                    c-0.194-0.432-0.388-0.863-0.54-1.318h6.936c0.152-0.432,0.26-0.885,0.367-1.339c0.087-0.433,0.174-0.886,0.217-1.34
                    c0.043-0.433,0.064-0.864,0.064-1.318C26.02,13.143,25.999,12.689,25.956,12.257L25.956,12.257z"></path>
                <path style="fill-rule:evenodd;clip-rule:evenodd;fill:#FFFFFF;" d="M30.19,10.702l-0.237,1.382
                    c-0.476-0.237-0.821-0.346-1.21-0.346c-1.016,0-1.729,0.994-1.729,2.398c0,0.972,0.475,1.556,1.274,1.556
                    c0.323,0,0.713-0.107,1.146-0.324l-0.237,1.447c-0.497,0.13-0.821,0.195-1.188,0.195c-1.47,0-2.377-1.059-2.377-2.767
                    c0-2.268,1.253-3.867,3.047-3.867c0.236,0,0.453,0.023,0.627,0.066l0.539,0.129C30.018,10.636,30.061,10.658,30.19,10.702
                    L30.19,10.702z"></path>
                <path style="fill-rule:evenodd;clip-rule:evenodd;fill:#FFFFFF;" d="M25.826,11.651c-0.043,0-0.087,0-0.129,0
                    c-0.455,0-0.714,0.216-1.124,0.843l0.129-0.799h-1.23l-0.843,5.185h1.361c0.497-3.176,0.627-3.715,1.274-3.715
                    c0.044,0,0.044,0,0.087,0c0.129-0.627,0.303-1.081,0.52-1.491L25.826,11.651L25.826,11.651z"></path>
                <path style="fill-rule:evenodd;clip-rule:evenodd;fill:#FFFFFF;" d="M18.004,16.815c-0.367,0.13-0.669,0.174-0.972,0.174
                    c-0.692,0-1.081-0.391-1.081-1.146c0-0.13,0.021-0.303,0.043-0.454l0.086-0.519l0.065-0.411l0.583-3.542h1.339l-0.152,0.777h0.691
                    l-0.173,1.274h-0.691l-0.367,2.161c-0.022,0.086-0.022,0.15-0.022,0.217c0,0.26,0.13,0.367,0.454,0.367
                    c0.151,0,0.282,0,0.368-0.043L18.004,16.815L18.004,16.815z"></path>
                <path style="fill-rule:evenodd;clip-rule:evenodd;fill:#FFFFFF;" d="M12.796,13.337c0,0.647,0.303,1.101,1.016,1.447
                    c0.562,0.26,0.649,0.346,0.649,0.562c0,0.324-0.238,0.475-0.778,0.475c-0.41,0-0.777-0.064-1.21-0.193l-0.195,1.188l0.064,0.021
                    l0.238,0.043c0.087,0.022,0.195,0.045,0.368,0.045c0.302,0.043,0.561,0.043,0.734,0.043c1.426,0,2.096-0.541,2.096-1.729
                    c0-0.713-0.281-1.125-0.951-1.449c-0.583-0.259-0.649-0.324-0.649-0.562c0-0.281,0.238-0.411,0.67-0.411
                    c0.259,0,0.627,0.022,0.972,0.065l0.195-1.188c-0.346-0.065-0.886-0.108-1.188-0.108C13.316,11.586,12.775,12.387,12.796,13.337
                    L12.796,13.337z"></path>
                <path style="fill-rule:evenodd;clip-rule:evenodd;fill:#FFFFFF;" d="M40.54,16.88h-1.273l0.064-0.496
                    c-0.368,0.389-0.758,0.562-1.254,0.562c-0.994,0-1.643-0.843-1.643-2.14c0-1.728,1.016-3.198,2.205-3.198
                    c0.539,0,0.929,0.238,1.295,0.713l0.303-1.814h1.34L40.54,16.88L40.54,16.88z M38.551,15.671c0.627,0,1.06-0.735,1.06-1.75
                    c0-0.67-0.237-1.016-0.714-1.016c-0.604,0-1.059,0.713-1.059,1.729C37.838,15.325,38.077,15.671,38.551,15.671L38.551,15.671z"></path>
                <path style="fill-rule:evenodd;clip-rule:evenodd;fill:#FFFFFF;" d="M22.153,16.772c-0.476,0.152-0.908,0.217-1.404,0.217
                    c-1.512,0-2.291-0.8-2.291-2.334c0-1.772,0.994-3.09,2.355-3.09c1.124,0,1.836,0.735,1.836,1.88c0,0.389-0.043,0.756-0.173,1.296
                    h-2.679c-0.022,0.064-0.022,0.107-0.022,0.151c0,0.605,0.41,0.907,1.188,0.907c0.497,0,0.93-0.086,1.405-0.323L22.153,16.772
                    L22.153,16.772z M21.396,13.683c0-0.107,0-0.194,0-0.259c0-0.432-0.237-0.67-0.647-0.67c-0.433,0-0.735,0.325-0.865,0.929H21.396
                    L21.396,13.683z"></path>
                <polygon style="fill-rule:evenodd;clip-rule:evenodd;fill:#FFFFFF;" points="7.633,16.88 6.293,16.88 7.071,11.976 5.321,16.88
                    4.392,16.88 4.284,12.019 3.463,16.88 2.21,16.88 3.269,10.507 5.213,10.507 5.278,14.46 6.574,10.507 8.692,10.507 7.633,16.88
                    "></polygon>
                <path style="fill-rule:evenodd;clip-rule:evenodd;fill:#FFFFFF;" d="M10.982,14.569c-0.13,0-0.195-0.022-0.302-0.022
                    c-0.757,0-1.146,0.281-1.146,0.8c0,0.324,0.172,0.518,0.475,0.518C10.572,15.864,10.961,15.347,10.982,14.569L10.982,14.569z
                     M11.976,16.88h-1.124l0.021-0.54c-0.345,0.433-0.799,0.628-1.426,0.628c-0.734,0-1.231-0.562-1.231-1.405
                    c0-1.274,0.864-2.01,2.376-2.01c0.151,0,0.346,0.022,0.562,0.043c0.043-0.173,0.043-0.237,0.043-0.324
                    c0-0.346-0.237-0.476-0.865-0.476c-0.388,0-0.82,0.044-1.123,0.13l-0.195,0.065l-0.13,0.021l0.194-1.167
                    c0.669-0.195,1.124-0.26,1.621-0.26c1.167,0,1.792,0.52,1.792,1.513c0,0.259-0.021,0.453-0.107,1.037l-0.303,1.837l-0.043,0.323
                    l-0.022,0.259l-0.021,0.195L11.976,16.88L11.976,16.88z"></path>
                <path style="fill-rule:evenodd;clip-rule:evenodd;fill:#FFFFFF;" d="M32.372,14.569c-0.15,0-0.215-0.022-0.302-0.022
                    c-0.778,0-1.167,0.281-1.167,0.8c0,0.324,0.195,0.518,0.497,0.518C31.94,15.864,32.35,15.347,32.372,14.569L32.372,14.569z
                     M33.367,16.88h-1.124l0.021-0.54c-0.346,0.433-0.8,0.628-1.426,0.628c-0.734,0-1.231-0.562-1.231-1.405
                    c0-1.274,0.864-2.01,2.377-2.01c0.151,0,0.345,0.022,0.54,0.043c0.043-0.173,0.064-0.237,0.064-0.324
                    c0-0.346-0.238-0.476-0.864-0.476c-0.39,0-0.843,0.044-1.145,0.13l-0.174,0.065l-0.129,0.021l0.194-1.167
                    c0.67-0.195,1.123-0.26,1.62-0.26c1.167,0,1.772,0.52,1.772,1.513c0,0.259,0,0.453-0.109,1.037l-0.28,1.837l-0.043,0.323
                    l-0.043,0.259l-0.021,0.195V16.88L33.367,16.88z"></path>
                <path style="fill-rule:evenodd;clip-rule:evenodd;fill:#FFFFFF;" d="M36.997,11.651c-0.043,0-0.087,0-0.13,0
                    c-0.454,0-0.714,0.216-1.124,0.843l0.13-0.799h-1.231l-0.82,5.185h1.339c0.497-3.176,0.627-3.715,1.274-3.715
                    c0.043,0,0.043,0,0.086,0c0.13-0.627,0.303-1.081,0.52-1.491L36.997,11.651L36.997,11.651z"></path>
            </g>
        </g>
    </g>
</svg>