<?xml version="1.0" encoding="utf-8"?>
<!-- Generator: Adobe Illustrator 16.0.0, SVG Export Plug-In . SVG Version: 6.00 Build 0)  -->
<!DOCTYPE svg PUBLIC "-//W3C//DTD SVG 1.1//EN" "http://www.w3.org/Graphics/SVG/1.1/DTD/svg11.dtd">
<svg version="1.1" id="Layer_1" xmlns="http://www.w3.org/2000/svg" xmlns:xlink="http://www.w3.org/1999/xlink" x="0px" y="0px"
	 width="19px" height="24px" viewBox="0 0 19 24" style="enable-background:new 0 0 19 24;" xml:space="preserve">
<g>
	<path d="M9.237,1C4.688,1,1,4.677,1,9.226c0,1.721,0.528,3.344,1.43,4.629l6.794,9.103l6.82-9.103
		c0.902-1.286,1.43-2.905,1.43-4.625C17.474,4.681,13.786,1,9.237,1z M9.211,13.202c-2.174,0-3.937-1.763-3.937-3.938
		c0-2.174,1.763-3.937,3.937-3.937c2.175,0,3.937,1.763,3.937,3.937C13.148,11.438,11.386,13.202,9.211,13.202z"/>
</g>
</svg>
