<?xml version="1.0" encoding="utf-8"?>
<!-- Generator: Adobe Illustrator 19.1.0, SVG Export Plug-In . SVG Version: 6.00 Build 0)  -->
<svg version="1.1" id="Layer_1" xmlns="http://www.w3.org/2000/svg" xmlns:xlink="http://www.w3.org/1999/xlink" x="0px" y="0px"
	 viewBox="0 0 56 56" style="enable-background:new 0 0 56 56;" xml:space="preserve">
<style type="text/css">
	.st0{fill:none;}
	.st1{fill:#FFFFFF;}
	.st2{fill:#000000;}
</style>
<g>
	<path class="st0" d="M28,2.1c-14.3,0-26,11.7-26,26c0,14.3,11.7,26,26,26c14.3,0,26-11.7,26-26C54,13.7,42.4,2.1,28,2.1z"/>
	<path class="st1" d="M27.5,54.5c0-0.3,0.2-0.5,0.5-0.5c-14.3,0-26-11.7-26-26c0-14.3,11.7-26,26-26c14.3,0,26,11.7,26,26
		c0-0.3,0.2-0.5,0.5-0.5S55,27.8,55,28c0-14.9-12.1-27-27-27s-27,12.1-27,27s12.1,27,27,27C27.8,55,27.5,54.8,27.5,54.5z"/>
	<path class="st2" d="M54.5,27.5c-0.3,0-0.5,0.2-0.5,0.5c0,14.3-11.7,26-26,26c-0.3,0-0.5,0.2-0.5,0.5S27.8,55,28,55
		c14.9,0,27-12.1,27-27C55,27.8,54.8,27.5,54.5,27.5z"/>
</g>
</svg>
