<?xml version="1.0" encoding="utf-8"?>
<!-- Generator: Adobe Illustrator 19.1.0, SVG Export Plug-In . SVG Version: 6.00 Build 0)  -->
<svg version="1.1" id="Lager_1" xmlns="http://www.w3.org/2000/svg" xmlns:xlink="http://www.w3.org/1999/xlink" x="0px" y="0px"
	 viewBox="0 0 40 40" style="enable-background:new 0 0 40 40;" xml:space="preserve">
<style type="text/css">
	.st0{fill-rule:evenodd;clip-rule:evenodd;fill:#06326E;}
	.st1{fill-rule:evenodd;clip-rule:evenodd;fill:#FAB31E;}
	.st2{fill-rule:evenodd;clip-rule:evenodd;fill:#E40520;}
	.st3{fill-rule:evenodd;clip-rule:evenodd;fill:#FFFFFF;}
</style>
<g>
	<polygon class="st0" points="1.8,31.5 38.2,31.5 38.2,8.5 1.8,8.5 1.8,31.5 	"/>
	<path class="st1" d="M20,27.4c1.8,1.6,4.1,2.6,6.7,2.6c5.5,0,10-4.5,10-10c0-5.5-4.5-10-10-10c-2.6,0-4.9,1-6.7,2.6
		c-2,1.8-3.3,4.5-3.3,7.4S18,25.6,20,27.4L20,27.4z"/>
	<path class="st1" d="M35.4,25.5c0-0.2,0.1-0.3,0.3-0.3c0.2,0,0.3,0.1,0.3,0.3c0,0.2-0.1,0.3-0.3,0.3C35.5,25.9,35.4,25.7,35.4,25.5
		L35.4,25.5z M35.7,25.8c0.1,0,0.2-0.1,0.2-0.3c0-0.1-0.1-0.2-0.2-0.2c-0.1,0-0.3,0.1-0.3,0.2C35.4,25.7,35.6,25.8,35.7,25.8
		L35.7,25.8z M35.6,25.7L35.6,25.7l-0.1-0.3h0.1c0,0,0.1,0,0.1,0c0,0,0,0,0,0.1c0,0,0,0.1-0.1,0.1l0.1,0.1H35.6l0.1-0.1h-0.1V25.7
		L35.6,25.7z M35.6,25.5L35.6,25.5C35.7,25.5,35.7,25.5,35.6,25.5C35.7,25.5,35.7,25.5,35.6,25.5C35.7,25.5,35.7,25.5,35.6,25.5
		C35.7,25.5,35.7,25.5,35.6,25.5L35.6,25.5L35.6,25.5L35.6,25.5z"/>
	<path class="st2" d="M23.3,18.9c0-0.4-0.1-0.7-0.2-1.1H17c0.1-0.4,0.2-0.7,0.3-1.1h5.5c-0.1-0.4-0.3-0.7-0.4-1.1h-4.7
		c0.2-0.4,0.4-0.7,0.6-1.1h3.5c-0.2-0.4-0.5-0.7-0.8-1.1h-2c0.3-0.4,0.6-0.7,1-1.1C18.3,11,15.9,10,13.3,10c-5.5,0-10,4.5-10,10
		c0,5.5,4.5,10,10,10c2.6,0,4.9-1,6.7-2.6l0,0c0.4-0.3,0.7-0.7,1-1.1h-2c-0.3-0.3-0.5-0.7-0.8-1.1h3.5c0.2-0.3,0.4-0.7,0.6-1.1h-4.7
		c-0.2-0.3-0.3-0.7-0.4-1.1h5.5c0.1-0.4,0.2-0.7,0.3-1.1c0.1-0.4,0.1-0.7,0.2-1.1c0-0.4,0.1-0.7,0.1-1.1S23.3,19.3,23.3,18.9
		L23.3,18.9z"/>
	<path class="st3" d="M35.4,22.3c0-0.2,0.1-0.3,0.3-0.3c0.2,0,0.3,0.1,0.3,0.3c0,0.2-0.1,0.3-0.3,0.3C35.5,22.6,35.4,22.5,35.4,22.3
		L35.4,22.3z M35.7,22.5c0.1,0,0.2-0.1,0.2-0.3c0-0.1-0.1-0.2-0.2-0.2c-0.1,0-0.3,0.1-0.3,0.2C35.4,22.4,35.6,22.5,35.7,22.5
		L35.7,22.5z M35.6,22.4L35.6,22.4l-0.1-0.3h0.1c0,0,0.1,0,0.1,0c0,0,0,0,0,0.1c0,0,0,0.1-0.1,0.1l0.1,0.1H35.6l0.1-0.1h-0.1V22.4
		L35.6,22.4z M35.6,22.3L35.6,22.3C35.7,22.3,35.7,22.3,35.6,22.3C35.7,22.3,35.7,22.2,35.6,22.3C35.7,22.2,35.7,22.2,35.6,22.3
		C35.7,22.2,35.7,22.2,35.6,22.3L35.6,22.3L35.6,22.3L35.6,22.3z"/>
	<path class="st0" d="M16.6,22.9C16.3,23,16.1,23,15.8,23c-0.5,0-0.8-0.3-0.8-0.9c0-0.1,0-0.2,0-0.4l0.1-0.4l0.1-0.3l0.5-2.8h1
		l-0.1,0.6h0.6l-0.2,1h-0.6l-0.3,1.7c0,0.1,0,0.1,0,0.2c0,0.2,0.1,0.3,0.4,0.3c0.1,0,0.2,0,0.3,0L16.6,22.9L16.6,22.9z"/>
	<path class="st0" d="M20,22.8c-0.4,0.1-0.7,0.2-1.1,0.2c-1.2,0-1.8-0.6-1.8-1.8c0-1.4,0.8-2.5,1.9-2.5c0.9,0,1.4,0.6,1.4,1.5
		c0,0.3,0,0.6-0.1,1h-2.2c0,0.1,0,0.1,0,0.1c0,0.5,0.3,0.7,0.9,0.7c0.4,0,0.7-0.1,1.1-0.3L20,22.8L20,22.8z M19.3,20.4
		c0-0.1,0-0.2,0-0.2c0-0.3-0.2-0.5-0.5-0.5c-0.4,0-0.6,0.3-0.7,0.7H19.3L19.3,20.4z"/>
	<polygon class="st0" points="8.4,22.9 7.3,22.9 7.9,19 6.5,22.9 5.8,22.9 5.7,19 5.1,22.9 4,22.9 4.9,17.8 6.4,17.8 6.5,21 
		7.5,17.8 9.2,17.8 8.4,22.9 	"/>
	<path class="st0" d="M11,21.1c-0.1,0-0.1,0-0.2,0c-0.6,0-0.9,0.2-0.9,0.6c0,0.3,0.2,0.4,0.4,0.4C10.8,22.1,11,21.7,11,21.1L11,21.1
		z M11.8,22.9h-0.9l0-0.4c-0.2,0.3-0.5,0.5-1.1,0.5c-0.5,0-1-0.5-1-1.1c0-0.2,0-0.4,0.1-0.5c0.2-0.6,0.8-1,1.8-1.1
		c0.1,0,0.3,0,0.5,0c0-0.1,0-0.2,0-0.3c0-0.3-0.2-0.4-0.7-0.4c-0.3,0-0.6,0.1-0.9,0.1l-0.1,0.1H9.4l0.2-0.9c0.5-0.2,0.9-0.2,1.3-0.2
		c0.9,0,1.4,0.4,1.4,1.2c0,0.2,0,0.4-0.1,0.8l-0.2,1.5l0,0.3l0,0.2v0.1L11.8,22.9L11.8,22.9z"/>
	<path class="st0" d="M25.2,18.8c0.3,0,0.6,0.1,1,0.3l0.2-1.1c-0.1,0-0.1,0-0.3-0.1l-0.4-0.1c-0.1,0-0.3-0.1-0.5-0.1
		c-0.5,0-0.8,0-1.2,0.2c-0.2,0.1-0.4,0.3-0.6,0.5l-0.1,0l-1.1,0.8l0.1-0.4H21l-0.6,4.1h1.1l0.4-2.2c0,0,0.2-0.3,0.2-0.4
		c0.2-0.3,0.4-0.3,0.6-0.3c0,0,0.1,0,0.1,0c0,0.2,0,0.5,0,0.8c0,1.3,0.8,2.2,1.9,2.2c0.3,0,0.5,0,0.9-0.2l0.2-1.2
		c-0.4,0.2-0.6,0.3-0.9,0.3c-0.6,0-1-0.4-1-1.2C23.8,19.6,24.4,18.8,25.2,18.8L25.2,18.8z"/>
	<path class="st0" d="M34.3,17.8l-0.2,1.4c-0.3-0.4-0.6-0.6-1-0.6c-0.6,0-1.1,0.3-1.4,0.9l0,0L31,19.2l0.1-0.4h-1.2l-0.7,4.1h1.1
		l0.4-2.2c0,0,0.3-0.3,0.4-0.4c0.2-0.2,0.3-0.3,0.5-0.3c-0.1,0.4-0.2,0.8-0.2,1.2c0,1,0.5,1.7,1.3,1.7c0.4,0,0.7-0.1,1-0.5l-0.1,0.4
		h1l0.8-5.1H34.3L34.3,17.8z M33,21.9c-0.4,0-0.5-0.3-0.5-0.8c0-0.8,0.3-1.4,0.8-1.4c0.4,0,0.6,0.3,0.6,0.8
		C33.9,21.4,33.5,21.9,33,21.9L33,21.9z"/>
	<path class="st0" d="M28,21.1c-0.1,0-0.1,0-0.2,0c-0.6,0-0.9,0.2-0.9,0.6c0,0.3,0.2,0.4,0.4,0.4C27.8,22.1,28,21.7,28,21.1L28,21.1
		z M28.9,22.9h-0.9l0-0.4c-0.2,0.3-0.5,0.5-1.1,0.5c-0.5,0-1-0.4-1-1.1c0-1,0.7-1.6,1.9-1.6c0.1,0,0.3,0,0.5,0c0-0.1,0-0.2,0-0.3
		c0-0.3-0.2-0.4-0.7-0.4c-0.3,0-0.7,0.1-0.9,0.1l-0.2,0.1h-0.1l0.2-0.9c0.5-0.2,0.9-0.2,1.3-0.2c0.9,0,1.4,0.4,1.4,1.2
		c0,0.2,0,0.4-0.1,0.8L29,22.2l0,0.3l0,0.2l0,0.1V22.9L28.9,22.9z"/>
	<path class="st0" d="M14.1,19.7c0.2,0,0.5,0,0.8,0.1l0.2-1c-0.3,0-0.7-0.1-1-0.1c-1.2,0-1.6,0.6-1.6,1.4c0,0.5,0.2,0.9,0.8,1.1
		c0.4,0.2,0.5,0.3,0.5,0.4c0,0.3-0.2,0.4-0.7,0.4c-0.3,0-0.6-0.1-1-0.2l-0.1,0.9h0l0.2,0c0.1,0,0.2,0,0.3,0c0.3,0,0.5,0,0.6,0
		c1.2,0,1.7-0.4,1.7-1.4c0-0.6-0.3-0.9-0.8-1.1c-0.4-0.2-0.5-0.2-0.5-0.4C13.6,19.8,13.8,19.7,14.1,19.7L14.1,19.7z"/>
	<path class="st3" d="M26.6,17.7l-0.2,1.1c-0.4-0.2-0.7-0.3-1-0.3c-0.8,0-1.4,0.8-1.4,1.9c0,0.8,0.4,1.2,1,1.2
		c0.3,0,0.6-0.1,0.9-0.3l-0.2,1.2c-0.4,0.1-0.6,0.1-1,0.1c-1.2,0-1.9-0.8-1.9-2.2c0-1.8,1-3.1,2.4-3.1c0.2,0,0.4,0,0.5,0l0.4,0.1
		C26.5,17.7,26.5,17.7,26.6,17.7L26.6,17.7z"/>
	<path class="st3" d="M23.2,18.5c0,0-0.1,0-0.1,0c-0.4,0-0.5,0.2-0.9,0.7l0.1-0.6h-1l-0.6,4.1h1.1c0.4-2.5,0.5-3,1-3c0,0,0,0,0.1,0
		C22.9,19.2,23,18.8,23.2,18.5L23.2,18.5L23.2,18.5z"/>
	<path class="st3" d="M16.9,22.5c-0.3,0.1-0.5,0.1-0.8,0.1c-0.5,0-0.9-0.3-0.9-0.9c0-0.1,0-0.2,0-0.4l0.1-0.4l0.1-0.3l0.5-2.8H17
		l-0.1,0.6h0.5l-0.2,1h-0.5l-0.3,1.7c0,0.1,0,0.1,0,0.2c0,0.2,0.1,0.3,0.4,0.3c0.1,0,0.2,0,0.3,0L16.9,22.5L16.9,22.5z"/>
	<path class="st3" d="M12.8,19.8c0,0.5,0.3,0.9,0.8,1.1c0.4,0.2,0.5,0.3,0.5,0.5c0,0.3-0.2,0.4-0.6,0.4c-0.3,0-0.6-0.1-1-0.2l-0.2,1
		h0.1l0.2,0c0.1,0,0.2,0,0.3,0c0.3,0,0.5,0,0.6,0c1.1,0,1.7-0.4,1.7-1.4c0-0.6-0.2-0.9-0.8-1.2c-0.4-0.2-0.5-0.3-0.5-0.4
		c0-0.2,0.2-0.4,0.5-0.4c0.2,0,0.5,0,0.8,0.1l0.2-1c-0.3,0-0.7-0.1-1-0.1C13.2,18.4,12.8,19,12.8,19.8L12.8,19.8z"/>
	<path class="st3" d="M34.9,22.6h-1l0.1-0.4c-0.3,0.3-0.6,0.4-1,0.4c-0.8,0-1.3-0.7-1.3-1.7c0-1.4,0.8-2.5,1.8-2.5
		c0.4,0,0.7,0.2,1,0.6l0.2-1.4h1.1L34.9,22.6L34.9,22.6z M33.3,21.6c0.5,0,0.9-0.6,0.9-1.4c0-0.5-0.2-0.8-0.6-0.8
		c-0.5,0-0.8,0.6-0.8,1.4C32.7,21.3,32.9,21.6,33.3,21.6L33.3,21.6z"/>
	<path class="st3" d="M20.2,22.5c-0.4,0.1-0.7,0.2-1.1,0.2c-1.2,0-1.8-0.6-1.8-1.8c0-1.4,0.8-2.5,1.9-2.5c0.9,0,1.4,0.6,1.4,1.5
		c0,0.3,0,0.6-0.1,1h-2.2c0,0.1,0,0.1,0,0.1c0,0.5,0.3,0.7,1,0.7c0.4,0,0.7-0.1,1.1-0.3L20.2,22.5L20.2,22.5z M19.6,20.1
		c0-0.1,0-0.2,0-0.2c0-0.3-0.2-0.5-0.5-0.5c-0.3,0-0.6,0.3-0.7,0.7H19.6L19.6,20.1z"/>
	<polygon class="st3" points="8.6,22.6 7.6,22.6 8.2,18.7 6.8,22.6 6.1,22.6 6,18.7 5.3,22.6 4.3,22.6 5.2,17.5 6.7,17.5 6.8,20.7 
		7.8,17.5 9.5,17.5 8.6,22.6 	"/>
	<path class="st3" d="M11.3,20.8c-0.1,0-0.2,0-0.3,0c-0.6,0-0.9,0.2-0.9,0.6c0,0.3,0.2,0.4,0.4,0.4C11,21.8,11.3,21.4,11.3,20.8
		L11.3,20.8z M12.1,22.6h-0.9l0-0.4c-0.3,0.3-0.6,0.5-1.1,0.5c-0.6,0-1-0.4-1-1.1c0-1,0.7-1.6,1.9-1.6c0.1,0,0.3,0,0.4,0
		c0-0.1,0-0.2,0-0.3c0-0.3-0.2-0.4-0.7-0.4c-0.3,0-0.7,0-0.9,0.1l-0.2,0l-0.1,0l0.2-0.9c0.5-0.2,0.9-0.2,1.3-0.2
		c0.9,0,1.4,0.4,1.4,1.2c0,0.2,0,0.4-0.1,0.8l-0.2,1.5l0,0.3l0,0.2l0,0.1L12.1,22.6L12.1,22.6z"/>
	<path class="st3" d="M28.4,20.8c-0.1,0-0.2,0-0.3,0c-0.6,0-0.9,0.2-0.9,0.6c0,0.3,0.2,0.4,0.4,0.4C28,21.8,28.4,21.4,28.4,20.8
		L28.4,20.8z M29.2,22.6h-0.9l0-0.4c-0.3,0.3-0.6,0.5-1.1,0.5c-0.6,0-1-0.4-1-1.1c0-1,0.7-1.6,1.9-1.6c0.1,0,0.3,0,0.4,0
		c0-0.1,0-0.2,0-0.3c0-0.3-0.2-0.4-0.7-0.4c-0.3,0-0.7,0-0.9,0.1l-0.2,0l-0.1,0l0.2-0.9c0.5-0.2,0.9-0.2,1.3-0.2
		c0.9,0,1.4,0.4,1.4,1.2c0,0.2,0,0.4-0.1,0.8l-0.2,1.5l0,0.3l0,0.2l0,0.1V22.6L29.2,22.6z"/>
	<path class="st3" d="M32.1,18.5C32,18.4,32,18.4,32.1,18.5c-0.4,0-0.7,0.2-1,0.6l0.1-0.6h-1l-0.7,4.1h1.1c0.4-2.5,0.5-3,1-3
		c0,0,0,0,0.1,0C31.8,19.2,31.9,18.8,32.1,18.5L32.1,18.5L32.1,18.5z"/>
</g>
</svg>
