<?xml version="1.0" encoding="UTF-8" standalone="no"?>
<svg width="90px" height="86px" viewBox="0 0 90 86" version="1.1" xmlns="http://www.w3.org/2000/svg" xmlns:xlink="http://www.w3.org/1999/xlink">
    <!-- Generator: Sketch 3.8.3 (29802) - http://www.bohemiancoding.com/sketch -->
    <title>paypal 2</title>
    <desc>Created with Sketch.</desc>
    <defs></defs>
    <g id="Page-1" stroke="none" stroke-width="1" fill="none" fill-rule="evenodd">
        <g id="paypal">
            <path d="M73.709,3.875 C71.348,3.875 69.482,4.501 68.054,4.787 L67.615,8.376 C68.329,8.033 70.58,7.407 72.447,7.35 C74.314,7.293 75.413,7.691 75.029,9.286 C69.483,9.286 65.747,10.425 64.979,14.015 C63.879,20.167 70.635,19.996 73.326,17.319 L72.997,18.8 L77.938,18.8 L80.081,9.002 C80.959,4.843 77.168,3.818 73.709,3.875 L73.709,3.875 Z M74.039,13.901 C73.764,15.21 72.722,15.78 71.459,15.837 C70.36,15.894 69.371,14.926 70.085,13.787 C70.635,12.819 72.172,12.59 73.106,12.59 L74.314,12.59 C74.203,13.046 74.146,13.445 74.039,13.901 L74.039,13.901 Z" id="Shape" fill="#4B4A4A"></path>
            <polygon id="Shape" fill="#4B4A4A" points="84.309 0 80.219 18.799 85.24 18.799 89.379 0 84.309 0"></polygon>
            <path d="M61.242,0.058 L52.051,0.058 L47.979,18.799 L53.317,18.799 L54.694,12.59 L58.491,12.59 C62.233,12.59 65.316,10.312 66.142,6.438 C67.076,2.052 63.885,0.058 61.242,0.058 L61.242,0.058 Z M61.078,6.438 C60.747,7.862 59.316,9.001 57.939,9.001 L55.462,9.001 L56.564,3.875 L59.207,3.875 C60.582,3.875 61.408,5.014 61.078,6.438 L61.078,6.438 Z" id="Shape" fill="#4B4A4A"></path>
            <path d="M25.576,3.875 C23.244,3.875 21.399,4.501 20.043,4.787 L19.608,8.376 C20.26,8.033 22.484,7.407 24.328,7.35 C26.172,7.293 27.258,7.691 26.932,9.286 C21.454,9.286 17.765,10.425 17.005,14.015 C15.92,20.167 22.593,19.996 25.196,17.319 L24.871,18.8 L29.807,18.8 L31.923,9.002 C32.79,4.843 28.993,3.818 25.576,3.875 L25.576,3.875 Z M25.956,13.901 C25.685,15.21 24.6,15.78 23.352,15.837 C22.267,15.894 21.345,14.926 22.05,13.787 C22.592,12.819 24.112,12.59 24.979,12.59 L26.227,12.59 C26.118,13.046 26.01,13.445 25.956,13.901 L25.956,13.901 Z" id="Shape" fill="#333333"></path>
            <polygon id="Shape" fill="#333333" points="34.074 4.144 39.009 4.144 39.805 12.872 44.635 4.144 49.729 4.144 38 25.033 32.481 25.033 36.089 18.891 34.074 4.144"></polygon>
            <path d="M13.299,0.058 L4.083,0.058 L0,18.799 L5.409,18.799 L6.733,12.59 L10.594,12.59 C14.292,12.59 17.382,10.312 18.21,6.438 C19.147,2.052 16.002,0.058 13.299,0.058 L13.299,0.058 Z M13.133,6.438 C12.802,7.862 11.423,9.001 10.043,9.001 L7.504,9.001 L8.663,3.875 L11.311,3.875 C12.637,3.875 13.519,5.014 13.133,6.438 L13.133,6.438 Z" id="Shape" fill="#333333"></path>
        </g>
        <g id="paypal" transform="translate(0.000000, 60.000000)" fill="#0851BD">
            <path d="M73.709,3.875 C71.348,3.875 69.482,4.501 68.054,4.787 L67.615,8.376 C68.329,8.033 70.58,7.407 72.447,7.35 C74.314,7.293 75.413,7.691 75.029,9.286 C69.483,9.286 65.747,10.425 64.979,14.015 C63.879,20.167 70.635,19.996 73.326,17.319 L72.997,18.8 L77.938,18.8 L80.081,9.002 C80.959,4.843 77.168,3.818 73.709,3.875 L73.709,3.875 Z M74.039,13.901 C73.764,15.21 72.722,15.78 71.459,15.837 C70.36,15.894 69.371,14.926 70.085,13.787 C70.635,12.819 72.172,12.59 73.106,12.59 L74.314,12.59 C74.203,13.046 74.146,13.445 74.039,13.901 L74.039,13.901 Z" id="Shape"></path>
            <polygon id="Shape" points="84.309 0 80.219 18.799 85.24 18.799 89.379 0 84.309 0"></polygon>
            <path d="M61.242,0.058 L52.051,0.058 L47.979,18.799 L53.317,18.799 L54.694,12.59 L58.491,12.59 C62.233,12.59 65.316,10.312 66.142,6.438 C67.076,2.052 63.885,0.058 61.242,0.058 L61.242,0.058 Z M61.078,6.438 C60.747,7.862 59.316,9.001 57.939,9.001 L55.462,9.001 L56.564,3.875 L59.207,3.875 C60.582,3.875 61.408,5.014 61.078,6.438 L61.078,6.438 Z" id="Shape"></path>
            <path d="M25.576,3.875 C23.244,3.875 21.399,4.501 20.043,4.787 L19.608,8.376 C20.26,8.033 22.484,7.407 24.328,7.35 C26.172,7.293 27.258,7.691 26.932,9.286 C21.454,9.286 17.765,10.425 17.005,14.015 C15.92,20.167 22.593,19.996 25.196,17.319 L24.871,18.8 L29.807,18.8 L31.923,9.002 C32.79,4.843 28.993,3.818 25.576,3.875 L25.576,3.875 Z M25.956,13.901 C25.685,15.21 24.6,15.78 23.352,15.837 C22.267,15.894 21.345,14.926 22.05,13.787 C22.592,12.819 24.112,12.59 24.979,12.59 L26.227,12.59 C26.118,13.046 26.01,13.445 25.956,13.901 L25.956,13.901 Z" id="Shape"></path>
            <polygon id="Shape" points="34.074 4.144 39.009 4.144 39.805 12.872 44.635 4.144 49.729 4.144 38 25.033 32.481 25.033 36.089 18.891 34.074 4.144"></polygon>
            <path d="M13.299,0.058 L4.083,0.058 L0,18.799 L5.409,18.799 L6.733,12.59 L10.594,12.59 C14.292,12.59 17.382,10.312 18.21,6.438 C19.147,2.052 16.002,0.058 13.299,0.058 L13.299,0.058 Z M13.133,6.438 C12.802,7.862 11.423,9.001 10.043,9.001 L7.504,9.001 L8.663,3.875 L11.311,3.875 C12.637,3.875 13.519,5.014 13.133,6.438 L13.133,6.438 Z" id="Shape"></path>
        </g>
    </g>
</svg>