<svg xmlns="http://www.w3.org/2000/svg" id="Layer_1" data-name="Layer 1" width="36px" height="22px"
     viewBox="0 0 54 33.75">
    <defs>
        <style>.cls-1{fill:#f2f2f2;}.cls-2{fill:#369;}.cls-3{fill:#036;}</style>
    </defs>
    <title>paypal</title>
    <rect class="cls-1" width="54" height="33.75" rx="1.8" ry="1.8"></rect>
    <path class="cls-2"
          d="M949.94,1010.51a4.13,4.13,0,0,0-1.93-.34,8.49,8.49,0,0,0-1.31.1l-.55.1a.63.63,0,0,0-.47.5l-.13.54c-.07.35.12.33.21.31a5.6,5.6,0,0,1,.64-.19,4.76,4.76,0,0,1,1-.14,2.68,2.68,0,0,1,1,.14.5.5,0,0,1,.33.49.37.37,0,0,1,0,.15s-.05.08-.16.1c-.62,0-1.06.09-1.59.17a5,5,0,0,0-1.37.38,2.14,2.14,0,0,0-.93.73,2,2,0,0,0-.31,1.13,1.33,1.33,0,0,0,.44,1,1.66,1.66,0,0,0,1.14.39,3,3,0,0,0,.68-.06,3.44,3.44,0,0,0,.52-.18,2.71,2.71,0,0,0,.44-.25l.41-.27h0l0,.17h0a.32.32,0,0,0,.29.41h1a.56.56,0,0,0,.46-.41l.79-3.4a2,2,0,0,0,0-.28,2.23,2.23,0,0,0,0-.26A1.14,1.14,0,0,0,949.94,1010.51Zm-1.91,4.06a2.94,2.94,0,0,1-.42.22,1.53,1.53,0,0,1-.56.12,1.25,1.25,0,0,1-.61-.12.42.42,0,0,1-.21-.4.83.83,0,0,1,.16-.53,1.12,1.12,0,0,1,.46-.31,4,4,0,0,1,.71-.16l.8-.09c.06,0,.1,0,.08.13s-.15.65-.22.91A.51.51,0,0,1,948,1014.57Z"
          transform="translate(-909 -996.64)"></path>
    <path class="cls-3"
          d="M936.36,1010.24a.93.93,0,0,0-.68.41l-1.7,2.92c-.08.14-.17.05-.18,0l-.48-2.9a.59.59,0,0,0-.59-.42h-1a.32.32,0,0,0-.33.41s.74,4.18.88,5.17c.07.54,0,.64,0,.64l-1,1.67c-.14.23-.06.41.17.41h1.12a.91.91,0,0,0,.68-.41l4.3-7.28s.41-.62,0-.62h-1.3"
          transform="translate(-909 -996.64)"></path>
    <path class="cls-3"
          d="M922.78,1011.72a2.27,2.27,0,0,1-1.36.36h-.27a.32.32,0,0,1-.33-.41l.33-1.4a.55.55,0,0,1,.52-.41H922a1.71,1.71,0,0,1,.94.21.7.7,0,0,1,.31.64,1.17,1.17,0,0,1-.49,1m2.33-2.16a1.61,1.61,0,0,0-.59-.63,2.72,2.72,0,0,0-.94-.35,7.83,7.83,0,0,0-1.28-.1H920a.56.56,0,0,0-.52.41l-1.52,6.61a.32.32,0,0,0,.33.41h1.08a.55.55,0,0,0,.52-.41l.37-1.6a.55.55,0,0,1,.52-.41h.31a5.12,5.12,0,0,0,3.08-.81,2.53,2.53,0,0,0,1.1-2.14,2,2,0,0,0-.21-1"
          transform="translate(-909 -996.64)"></path>
    <path class="cls-2"
          d="M942.39,1011.75a2.28,2.28,0,0,1-1.36.35h-.27a.32.32,0,0,1-.33-.41l.32-1.4a.55.55,0,0,1,.51-.41h.35a1.76,1.76,0,0,1,.94.21.72.72,0,0,1,.31.64,1.19,1.19,0,0,1-.49,1m2.33-2.16a1.65,1.65,0,0,0-.59-.64,2.68,2.68,0,0,0-.94-.35,7.51,7.51,0,0,0-1.27-.1h-2.26a.56.56,0,0,0-.52.41l-1.52,6.61a.32.32,0,0,0,.32.41H939a.56.56,0,0,0,.52-.41l.37-1.6a.55.55,0,0,1,.52-.41h.31a5.11,5.11,0,0,0,3.08-.81,2.55,2.55,0,0,0,1.1-2.14,2.09,2.09,0,0,0-.21-1"
          transform="translate(-909 -996.64)"></path>
    <path class="cls-3"
          d="M930.32,1010.51a4.12,4.12,0,0,0-1.93-.34,8.53,8.53,0,0,0-1.31.1l-.55.1a.63.63,0,0,0-.47.5l-.13.54c-.08.35.12.33.21.31a5.77,5.77,0,0,1,.64-.19,4.72,4.72,0,0,1,1-.14,2.68,2.68,0,0,1,1,.14.5.5,0,0,1,.33.49.35.35,0,0,1,0,.15s-.05.08-.16.1c-.62,0-1.06.09-1.59.17a5,5,0,0,0-1.37.38,2.14,2.14,0,0,0-.93.73,2,2,0,0,0-.31,1.13,1.32,1.32,0,0,0,.44,1,1.66,1.66,0,0,0,1.14.39,3,3,0,0,0,.68-.06,3.46,3.46,0,0,0,.52-.18,2.73,2.73,0,0,0,.45-.25l.41-.27h0l0,.17h0a.32.32,0,0,0,.29.4h1a.56.56,0,0,0,.46-.41l.79-3.41a1.88,1.88,0,0,0,0-.28,2,2,0,0,0,0-.26A1.14,1.14,0,0,0,930.32,1010.51Zm-1.91,4.06a2.78,2.78,0,0,1-.42.22,1.53,1.53,0,0,1-.56.12,1.26,1.26,0,0,1-.61-.12.42.42,0,0,1-.21-.4.82.82,0,0,1,.16-.53,1.11,1.11,0,0,1,.46-.31,4,4,0,0,1,.71-.16l.8-.09c.06,0,.1,0,.08.13s-.15.65-.22.91A.52.52,0,0,1,928.41,1014.57Z"
          transform="translate(-909 -996.64)"></path>
    <path class="cls-2"
          d="M953.66,1008.56h-1a.56.56,0,0,0-.5.38l0,0-.05.24-1.33,6-.06.27h0a.32.32,0,0,0,.29.4h1a.56.56,0,0,0,.5-.38v0L954,1009h0A.32.32,0,0,0,953.66,1008.56Z"
          transform="translate(-909 -996.64)"></path>
</svg>