<svg xmlns="http://www.w3.org/2000/svg" width="20" height="20" viewBox="0 0 20 20" id="phone--grey" x="103" y="103"><path d="M4.777 1c-.228 0-.526.046-.892.138a6.065 6.065 0 0 0-.87.275C2.587 1.58 2.13 2.1 1.64 2.97 1.215 3.762 1 4.55 1 5.327a4.8 4.8 0 0 0 .207 1.42c.075.274.137.473.183.595.046.122.13.358.25.71.123.35.2.564.23.64.305.825.664 1.565 1.077 2.22.67 1.1 1.587 2.23 2.747 3.39 1.16 1.158 2.29 2.076 3.39 2.748.655.41 1.395.762 2.22 1.052.076.03.288.106.64.23.352.122.59.213.71.274.122.062.32.122.597.183l.733.16c.213.046.434.06.662.046.794 0 1.588-.223 2.383-.665.87-.47 1.387-.923 1.556-1.35a5.98 5.98 0 0 0 .275-.87c.09-.365.136-.663.136-.892a.643.643 0 0 0-.045-.275c-.046-.153-.374-.382-.984-.687-.153-.09-.382-.213-.687-.366a7.53 7.53 0 0 1-.803-.458 5.133 5.133 0 0 0-.687-.39 3.1 3.1 0 0 0-.32-.228 4.72 4.72 0 0 0-.458-.275.812.812 0 0 0-.367-.092c-.168 0-.38.12-.64.366a4.91 4.91 0 0 0-.688.802 4.15 4.15 0 0 1-.687.777c-.26.23-.45.35-.572.367a.896.896 0 0 1-.298-.07 8.365 8.365 0 0 0-.252-.09c-.045-.018-.15-.077-.32-.184s-.244-.16-.23-.16c-1.174-.64-2.18-1.382-3.02-2.222-.84-.84-1.58-1.838-2.22-3a1.3 1.3 0 0 0-.138-.228 2.056 2.056 0 0 1-.184-.32 3.43 3.43 0 0 0-.115-.25c-.045-.093-.06-.192-.045-.298 0-.153.115-.344.344-.573s.495-.458.8-.687c.306-.23.573-.465.802-.71.23-.244.35-.458.366-.64a.77.77 0 0 0-.092-.344 4.352 4.352 0 0 0-.274-.458c-.122-.183-.2-.29-.23-.32-.12-.214-.252-.444-.39-.687-.136-.246-.29-.513-.457-.802-.167-.29-.297-.528-.39-.71-.29-.596-.51-.917-.663-.962A.647.647 0 0 0 4.777 1z" fill="#7b7b7b"/></svg>