<?xml version="1.0" encoding="UTF-8"?>
<svg width="26px" height="18px" viewBox="0 0 26 18" version="1.1" xmlns="http://www.w3.org/2000/svg" xmlns:xlink="http://www.w3.org/1999/xlink">
    <!-- Generator: Sketch 43.2 (39069) - http://www.bohemiancoding.com/sketch -->
    <title>portugal</title>
    <desc>Created with Sketch.</desc>
    <defs></defs>
    <g id="Page-1" stroke="none" stroke-width="1" fill="none" fill-rule="evenodd">
        <g id="portugal">
            <g id="Rectangle-9">
                <g id="path-1-link" fill="#417505">
                    <rect id="path-1" x="0" y="0" width="10" height="18"></rect>
                </g>
                <rect id="path-1" x="0" y="0" width="10" height="18"></rect>
            </g>
            <rect id="Rectangle-9" fill="#D0011B" fill-rule="nonzero" x="10" y="0" width="16" height="18"></rect>
            <g id="CREST" transform="translate(4.000000, 3.000000)" fill-rule="nonzero">
                <rect id="Rectangle-9" fill="#FFDD00" x="4" y="0" width="4" height="1"></rect>
                <rect id="Rectangle-9-Copy-4" fill="#FFDD00" x="2" y="1" width="3" height="1"></rect>
                <rect id="Rectangle-9-Copy-16" fill="#FFDD00" x="6" y="1" width="1" height="1"></rect>
                <rect id="Rectangle-9-Copy-41" fill="#F6A623" x="3" y="3" width="1" height="1"></rect>
                <rect id="Rectangle-9-Copy-42" fill="#F6A623" x="6" y="3" width="1" height="1"></rect>
                <rect id="Rectangle-9-Copy-43" fill="#F6A623" x="8" y="3" width="1" height="1"></rect>
                <rect id="Rectangle-9-Copy-44" fill="#F6A623" x="8" y="5" width="1" height="1"></rect>
                <rect id="Rectangle-9-Copy-45" fill="#F6A623" x="8" y="7" width="1" height="1"></rect>
                <rect id="Rectangle-9-Copy-46" fill="#F6A623" x="3" y="7" width="1" height="1"></rect>
                <rect id="Rectangle-9-Copy-47" fill="#F6A623" x="3" y="5" width="1" height="1"></rect>
                <rect id="Rectangle-9-Copy-25" fill="#FFDD00" x="3" y="8" width="1" height="1"></rect>
                <rect id="Rectangle-9-Copy-26" fill="#FFDD00" x="6" y="10" width="1" height="1"></rect>
                <rect id="Rectangle-9-Copy-27" fill="#FFDD00" x="8" y="8" width="1" height="1"></rect>
                <rect id="Rectangle-9-Copy-28" fill="#D0011B" x="4" y="3" width="2" height="1"></rect>
                <rect id="Rectangle-9-Copy-29" fill="#D0011B" x="4" y="8" width="2" height="1"></rect>
                <rect id="Rectangle-9-Copy-33" fill="#FFFFFF" x="4" y="4" width="2" height="1"></rect>
                <rect id="Rectangle-9-Copy-34" fill="#FFFFFF" x="4" y="6" width="2" height="1"></rect>
                <rect id="Rectangle-9-Copy-35" fill="#FFFFFF" x="5" y="7" width="2" height="1"></rect>
                <rect id="Rectangle-9-Copy-36" fill="#FFFFFF" x="4" y="5" width="1" height="1"></rect>
                <rect id="Rectangle-9-Copy-37" fill="#FFFFFF" x="7" y="4" width="1" height="1"></rect>
                <rect id="Rectangle-9-Copy-38" fill="#FFFFFF" x="7" y="6" width="1" height="1"></rect>
                <rect id="Rectangle-9-Copy-39" fill="#0050A4" x="5" y="5" width="3" height="1"></rect>
                <rect id="Rectangle-9-Copy-40" fill="#0050A4" x="6" y="4" width="1" height="3"></rect>
                <rect id="Rectangle-9-Copy-30" fill="#D0011B" x="3" y="6" width="1" height="1"></rect>
                <rect id="Rectangle-9-Copy-31" fill="#D0011B" x="3" y="4" width="1" height="1"></rect>
                <rect id="Rectangle-9-Copy-32" fill="#D0011B" x="4" y="7" width="1" height="1"></rect>
                <rect id="Rectangle-9-Copy-17" fill="#FFDD00" x="10" y="2" width="1" height="2"></rect>
                <rect id="Rectangle-9-Copy-22" fill="#FFDD00" x="1" y="2" width="1" height="2"></rect>
                <rect id="Rectangle-9-Copy-23" fill="#FFDD00" x="10" y="8" width="1" height="2"></rect>
                <rect id="Rectangle-9-Copy-24" fill="#FFDD00" x="1" y="7" width="1" height="3"></rect>
                <rect id="Rectangle-9-Copy-18" fill="#FFDD00" x="11" y="4" width="1" height="4"></rect>
                <rect id="Rectangle-9-Copy-19" fill="#FFDD00" x="9" y="3" width="1" height="5"></rect>
                <rect id="Rectangle-9-Copy-20" fill="#FFDD00" x="2" y="3" width="1" height="5"></rect>
                <rect id="Rectangle-9-Copy-21" fill="#FFDD00" x="0" y="4" width="1" height="4"></rect>
                <rect id="Rectangle-9-Copy-5" fill="#FFDD00" x="0" y="5" width="3" height="1"></rect>
                <rect id="Rectangle-9-Copy-6" fill="#FFDD00" x="0" y="7" width="3" height="1"></rect>
                <rect id="Rectangle-9-Copy-7" fill="#FFDD00" x="9" y="7" width="3" height="1"></rect>
                <rect id="Rectangle-9-Copy-8" fill="#FFDD00" x="9" y="5" width="3" height="1"></rect>
                <rect id="Rectangle-9-Copy-9" fill="#FFDD00" x="2" y="10" width="3" height="1"></rect>
                <rect id="Rectangle-9-Copy-10" fill="#FFDD00" x="8" y="1" width="2" height="1"></rect>
                <rect id="Rectangle-9-Copy-11" fill="#FFDD00" x="9" y="3" width="2" height="1"></rect>
                <rect id="Rectangle-9-Copy-12" fill="#FFDD00" x="9" y="9" width="2" height="1"></rect>
                <rect id="Rectangle-9-Copy-13" fill="#FFDD00" x="8" y="10" width="2" height="1"></rect>
                <rect id="Rectangle-9-Copy-14" fill="#FFDD00" x="1" y="9" width="2" height="1"></rect>
                <rect id="Rectangle-9-Copy-15" fill="#FFDD00" x="1" y="3" width="2" height="1"></rect>
                <rect id="Rectangle-9-Copy-2" fill="#FFDD00" x="4" y="9" width="4" height="1"></rect>
                <rect id="Rectangle-9-Copy-3" fill="#FFDD00" x="4" y="11" width="4" height="1"></rect>
                <rect id="Rectangle-9-Copy" fill="#FFDD00" x="3" y="2" width="6" height="1"></rect>
            </g>
        </g>
    </g>
</svg>