<?xml version="1.0" encoding="UTF-8"?>
<svg width="26px" height="18px" viewBox="0 0 26 18" version="1.1" xmlns="http://www.w3.org/2000/svg" xmlns:xlink="http://www.w3.org/1999/xlink">
    <!-- Generator: Sketch 43.2 (39069) - http://www.bohemiancoding.com/sketch -->
    <title>slovakia</title>
    <desc>Created with Sketch.</desc>
    <defs></defs>
    <g id="Page-1" stroke="none" stroke-width="1" fill="none" fill-rule="evenodd">
        <g id="slovakia">
            <g id="slovakia_on_site">
                <rect id="Rectangle-9-Copy-8" fill="#FFDD00" fill-rule="nonzero" x="7" y="0" width="4" height="18"></rect>
                <g id="Rectangle-9">
                    <g id="path-1-link" fill-rule="nonzero" fill="#FFFFFF">
                        <rect id="path-1" x="0" y="0" width="26" height="6"></rect>
                    </g>
                    <rect id="path-1" x="0" y="0" width="26" height="6"></rect>
                </g>
                <polygon id="Rectangle-9" fill="#2649D5" fill-rule="nonzero" points="26 6 26 12 0 12 0 6"></polygon>
                <polygon id="Rectangle-9" fill="#D0011B" fill-rule="nonzero" points="26 12 26 18 0 18 0 12"></polygon>
            </g>
            <g id="crest" transform="translate(3.000000, 4.000000)" fill-rule="nonzero">
                <rect id="Rectangle-2" fill="#FFFFFF" x="0" y="0" width="1" height="7"></rect>
                <rect id="Rectangle-2-Copy-9" fill="#FFFFFF" x="4" y="1" width="1" height="5"></rect>
                <rect id="Rectangle-2-Copy-6" fill="#FFFFFF" x="8" y="0" width="1" height="7"></rect>
                <rect id="Rectangle-2-Copy" fill="#FFFFFF" x="1" y="7" width="1" height="1"></rect>
                <rect id="Rectangle-2-Copy-5" fill="#FFFFFF" x="7" y="7" width="1" height="1"></rect>
                <rect id="Rectangle-2-Copy-2" fill="#FFFFFF" x="2" y="8" width="1" height="1"></rect>
                <rect id="Rectangle-2-Copy-4" fill="#FFFFFF" x="6" y="8" width="1" height="1"></rect>
                <rect id="Rectangle-2-Copy-11" fill="#D0011B" x="3" y="6" width="1" height="1"></rect>
                <rect id="Rectangle-2-Copy-13" fill="#D0011B" x="1" y="5" width="3" height="1"></rect>
                <rect id="Rectangle-2-Copy-15" fill="#D0011B" x="1" y="3" width="3" height="1"></rect>
                <rect id="Rectangle-2-Copy-21" fill="#D0011B" x="1" y="1" width="3" height="1"></rect>
                <rect id="Rectangle-2-Copy-23" fill="#D0011B" x="1" y="1" width="3" height="1"></rect>
                <rect id="Rectangle-2-Copy-24" fill="#D0011B" x="1" y="0" width="7" height="1"></rect>
                <rect id="Rectangle-2-Copy-19" fill="#D0011B" x="1" y="2" width="2" height="1"></rect>
                <rect id="Rectangle-2-Copy-20" fill="#D0011B" x="6" y="2" width="2" height="1"></rect>
                <rect id="Rectangle-2-Copy-14" fill="#D0011B" x="5" y="5" width="3" height="1"></rect>
                <rect id="Rectangle-2-Copy-16" fill="#D0011B" x="5" y="3" width="3" height="1"></rect>
                <rect id="Rectangle-2-Copy-22" fill="#D0011B" x="5" y="1" width="3" height="1"></rect>
                <rect id="Rectangle-2-Copy-12" fill="#D0011B" x="5" y="6" width="1" height="1"></rect>
                <rect id="Rectangle-2-Copy-17" fill="#D0011B" x="7" y="4" width="1" height="1"></rect>
                <rect id="Rectangle-2-Copy-18" fill="#D0011B" x="1" y="4" width="1" height="1"></rect>
                <rect id="Rectangle-2-Copy-3" fill="#FFFFFF" x="3" y="9" width="3" height="1"></rect>
                <rect id="Rectangle-2-Copy-10" fill="#2649D5" x="3" y="8" width="3" height="1"></rect>
                <rect id="Rectangle-2-Copy-7" fill="#FFFFFF" x="2" y="4" width="5" height="1"></rect>
                <rect id="Rectangle-2-Copy-8" fill="#FFFFFF" x="3" y="2" width="3" height="1"></rect>
            </g>
        </g>
    </g>
</svg>