<?xml version="1.0" encoding="UTF-8"?>
<svg width="26px" height="18px" viewBox="0 0 26 18" version="1.1" xmlns="http://www.w3.org/2000/svg" xmlns:xlink="http://www.w3.org/1999/xlink">
    <!-- Generator: Sketch 43.2 (39069) - http://www.bohemiancoding.com/sketch -->
    <title>spain</title>
    <desc>Created with Sketch.</desc>
    <defs></defs>
    <g id="Page-1" stroke="none" stroke-width="1" fill="none" fill-rule="evenodd">
        <g id="spain">
            <g id="Rectangle-9-Copy-3">
                <g id="path-1-link" fill="#D0011B">
                    <rect id="path-1" x="0" y="0" width="26" height="5"></rect>
                </g>
                <rect id="path-1" x="0" y="0" width="26" height="5"></rect>
            </g>
            <g id="Rectangle-9-Copy-3" transform="translate(0.000000, 13.000000)">
                <g id="path-2-link" fill="#D0011B">
                    <rect id="path-2" x="0" y="0" width="26" height="5"></rect>
                </g>
                <rect id="path-2" x="0" y="0" width="26" height="5"></rect>
            </g>
            <polygon id="Rectangle-9-Copy" fill="#FFDD00" fill-rule="nonzero" points="26 5 26 13 0 13 0 5"></polygon>
            <g id="crest" transform="translate(4.000000, 6.000000)" fill-rule="nonzero">
                <rect id="Rectangle-9-Copy-48" fill="#F6A623" x="7" y="1" width="1" height="1"></rect>
                <rect id="Rectangle-9-Copy-51" fill="#F6A623" x="0" y="1" width="1" height="1"></rect>
                <rect id="Rectangle-9-Copy-50" fill="#CCCCCC" x="7" y="3" width="1" height="2"></rect>
                <rect id="Rectangle-9-Copy-53" fill="#CCCCCC" x="0" y="3" width="1" height="2"></rect>
                <rect id="Rectangle-9-Copy-65" fill="#D0011B" x="0" y="2" width="1" height="1"></rect>
                <rect id="Rectangle-9-Copy-66" fill="#D0011B" x="7" y="2" width="1" height="1"></rect>
                <rect id="Rectangle-9-Copy-62" fill="#F6A623" x="3" y="1" width="2" height="1"></rect>
                <rect id="Rectangle-9-Copy-64" fill="#D0011B" x="2" y="0" width="4" height="1"></rect>
                <rect id="Rectangle-9-Copy-52" fill="#D0011B" x="0" y="5" width="1" height="1"></rect>
                <rect id="Rectangle-9-Copy-49" fill="#D0011B" x="7" y="5" width="1" height="1"></rect>
                <rect id="Rectangle-9-Copy-54" fill="#CCCCCC" x="4" y="3" width="2" height="1"></rect>
                <rect id="Rectangle-9-Copy-28" fill="#D0011B" x="4" y="5" width="1" height="1"></rect>
                <rect id="Rectangle-9-Copy-55" fill="#D0011B" x="4" y="4" width="2" height="1"></rect>
                <rect id="Rectangle-9-Copy-67" fill="#D0011B" x="4" y="2" width="2" height="1"></rect>
                <rect id="Rectangle-9-Copy-58" fill="#D0011B" x="2" y="2" width="2" height="2"></rect>
                <rect id="Rectangle-9-Copy-56" fill="#F6A623" x="3" y="5" width="1" height="1"></rect>
                <rect id="Rectangle-9-Copy-57" fill="#F6A623" x="2" y="4" width="2" height="1"></rect>
            </g>
        </g>
    </g>
</svg>