<?xml version="1.0" encoding="utf-8"?>
<!-- Generator: Adobe Illustrator 19.0.0, SVG Export Plug-In . SVG Version: 6.00 Build 0)  -->
<svg version="1.1" id="Layer_1" xmlns="http://www.w3.org/2000/svg" xmlns:xlink="http://www.w3.org/1999/xlink" x="0px" y="0px"
	 viewBox="100 366 1235 650" style="enable-background:new 100 366 1235 650;" xml:space="preserve">
<style type="text/css">
	.st0{fill:#FFFFFF;}
	.st1{fill:#B22234;}
	.st2{fill:#3C3B6E;}
</style>
<rect x="100" y="366" class="st0" width="1235" height="650"/>
<g>
	<rect id="stripe" x="100" y="366" class="st1" width="1235" height="50"/>
</g>
<g>
	<rect id="stripe_1_" x="100" y="466" class="st1" width="1235" height="50"/>
</g>
<g>
	<rect id="stripe_2_" x="100" y="566" class="st1" width="1235" height="50"/>
</g>
<g>
	<rect id="stripe_3_" x="100" y="666" class="st1" width="1235" height="50"/>
</g>
<g>
	<rect id="stripe_4_" x="100" y="766" class="st1" width="1235" height="50"/>
</g>
<g>
	<rect id="stripe_5_" x="100" y="866" class="st1" width="1235" height="50"/>
</g>
<g>
	<rect id="stripe_6_" x="100" y="966" class="st1" width="1235" height="50"/>
</g>
<rect x="100" y="366" class="st2" width="494" height="350"/>
<g>
	<g>
		<g>
			<g id="star_17_">
			</g>
			<g id="star_18_">
			</g>
			<g id="star_19_">
			</g>
			<g id="star_20_">
			</g>
			<g id="star_21_">
			</g>
		</g>
	</g>
	<g>
		<g>
			<g id="s6_2_">
			</g>
			<g id="s5_3_">
			</g>
			<g id="s6_3_">
			</g>
			<g id="s5_4_">
			</g>
		</g>
		<g id="s6_4_">
		</g>
	</g>
</g>
<g>
	<g>
		<g>
			<g id="star_26_">
			</g>
			<g id="star_25_">
			</g>
			<g id="star_24_">
			</g>
			<g id="star_23_">
			</g>
			<g id="star_22_">
			</g>
		</g>
	</g>
	<g>
		<g>
			<g id="s6_7_">
			</g>
			<g id="s5_6_">
			</g>
			<g id="s6_6_">
			</g>
			<g id="s5_5_">
			</g>
		</g>
		<g id="s6_5_">
		</g>
	</g>
</g>
<g>
	<g>
		<g>
			<g id="star_48_">
			</g>
			<g id="star_47_">
			</g>
			<g id="star_46_">
			</g>
			<g id="star_45_">
			</g>
			<g id="star_44_">
			</g>
		</g>
	</g>
	<g>
		<g>
			<g id="s6_12_">
			</g>
			<g id="s5_11_">
			</g>
			<g id="s6_11_">
			</g>
			<g id="s5_10_">
			</g>
		</g>
		<g id="s6_10_">
		</g>
	</g>
</g>
<g>
	<g>
		<g>
			<g id="star_70_">
			</g>
			<g id="star_69_">
			</g>
			<g id="star_68_">
			</g>
			<g id="star_67_">
			</g>
			<g id="star_66_">
			</g>
		</g>
	</g>
	<g>
		<g>
			<g id="s6_17_">
			</g>
			<g id="s5_16_">
			</g>
			<g id="s6_16_">
			</g>
			<g id="s5_15_">
			</g>
		</g>
		<g id="s6_15_">
		</g>
	</g>
</g>
<g>
	<polygon class="st0" points="142.2,380.6 137.8,394.4 123.2,394.4 135,403 130.5,416.8 142.2,408.2 154,416.8 149.5,403 
		161.3,394.4 146.7,394.4 	"/>
	<polygon class="st0" points="224.2,380.6 219.7,394.4 205.1,394.4 216.9,403 212.4,416.8 224.2,408.2 235.9,416.8 231.4,403 
		243.2,394.4 228.6,394.4 	"/>
	<polygon class="st0" points="306,380.6 301.6,394.4 287,394.4 298.8,403 294.3,416.8 306,408.2 317.8,416.8 313.3,403 325.1,394.4 
		310.5,394.4 	"/>
	<polygon class="st0" points="388,380.6 383.5,394.4 368.9,394.4 380.7,403 376.2,416.8 388,408.2 399.7,416.8 395.2,403 407,394.4 
		392.4,394.4 	"/>
	<polygon class="st0" points="469.8,380.6 465.4,394.4 450.8,394.4 462.6,403 458.1,416.8 469.9,408.2 481.6,416.8 477.1,403 
		488.9,394.4 474.3,394.4 	"/>
	<polygon class="st0" points="540,416.8 551.8,408.2 563.5,416.8 559,403 570.8,394.4 556.2,394.4 551.8,380.6 547.3,394.4 
		532.7,394.4 544.5,403 	"/>
	<polygon class="st0" points="183.2,415.7 178.7,429.5 164.2,429.5 175.9,438.1 171.4,451.9 183.2,443.3 195,451.9 190.5,438.1 
		202.2,429.5 187.7,429.5 	"/>
	<polygon class="st0" points="265.1,415.7 260.6,429.5 246.1,429.5 257.8,438.1 253.3,451.9 265.1,443.3 276.9,451.9 272.4,438.1 
		284.1,429.5 269.6,429.5 	"/>
	<polygon class="st0" points="347,415.7 342.5,429.5 328,429.5 339.7,438.1 335.2,451.9 347,443.3 358.8,451.9 354.3,438.1 
		366,429.5 351.5,429.5 	"/>
	<polygon class="st0" points="428.9,415.7 424.4,429.5 409.9,429.5 421.6,438.1 417.1,451.9 428.9,443.3 440.7,451.9 436.2,438.1 
		447.9,429.5 433.4,429.5 	"/>
	<polygon class="st0" points="510.8,415.7 506.3,429.5 491.8,429.5 503.5,438.1 499,451.9 510.8,443.3 522.6,451.9 518.1,438.1 
		529.8,429.5 515.3,429.5 	"/>
	<polygon class="st0" points="146.7,464.4 142.2,450.6 137.8,464.4 123.2,464.4 123.5,464.6 123.2,464.6 134.9,473.1 130.5,486.8 
		130.6,486.7 130.5,487 142.2,478.4 154,487 153.9,486.7 154,486.8 149.6,473.1 161.3,464.6 161,464.6 161.3,464.4 	"/>
	<polygon class="st0" points="228.6,464.4 224.2,450.6 219.7,464.4 205.1,464.4 205.4,464.6 205.1,464.6 216.8,473.1 212.4,486.8 
		212.5,486.7 212.4,487 224.2,478.4 235.9,487 235.8,486.7 235.9,486.8 231.5,473.1 243.2,464.6 242.9,464.6 243.2,464.4 	"/>
	<polygon class="st0" points="310.5,464.4 306,450.6 301.6,464.4 287,464.4 287.3,464.6 287,464.6 298.7,473.1 294.3,486.8 
		294.4,486.7 294.3,487 306,478.4 317.8,487 317.7,486.7 317.8,486.8 313.4,473.1 325.1,464.6 324.8,464.6 325.1,464.4 	"/>
	<polygon class="st0" points="392.4,464.4 388,450.6 383.5,464.4 368.9,464.4 369.2,464.6 368.9,464.6 380.6,473.1 376.2,486.8 
		376.3,486.7 376.2,487 388,478.4 399.7,487 399.6,486.7 399.7,486.8 395.3,473.1 407,464.6 406.7,464.6 407,464.4 	"/>
	<polygon class="st0" points="474.3,464.4 469.8,450.6 465.4,464.4 450.8,464.4 451.1,464.6 450.8,464.6 462.5,473.1 458.1,486.8 
		458.2,486.7 458.1,487 469.9,478.4 481.6,487 481.5,486.7 481.6,486.8 477.2,473.1 488.9,464.6 488.6,464.6 488.9,464.4 	"/>
	<polygon class="st0" points="556.2,464.4 551.8,450.6 547.3,464.4 532.7,464.4 533,464.6 532.7,464.6 544.4,473.1 540,486.8 
		540.1,486.7 540,487 551.8,478.4 563.5,487 563.4,486.7 563.5,486.8 559.1,473.1 570.8,464.6 570.5,464.6 570.8,464.4 	"/>
	<polygon class="st0" points="183.2,485.7 178.7,499.5 164.2,499.5 175.9,508.1 171.4,521.9 183.2,513.3 195,521.9 190.5,508.1 
		202.2,499.5 187.7,499.5 	"/>
	<polygon class="st0" points="265.1,485.7 260.6,499.5 246.1,499.5 257.8,508.1 253.3,521.9 265.1,513.3 276.9,521.9 272.4,508.1 
		284.1,499.5 269.6,499.5 	"/>
	<polygon class="st0" points="347,485.7 342.5,499.5 328,499.5 339.7,508.1 335.2,521.9 347,513.3 358.8,521.9 354.3,508.1 
		366,499.5 351.5,499.5 	"/>
	<polygon class="st0" points="428.9,485.7 424.4,499.5 409.9,499.5 421.6,508.1 417.1,521.9 428.9,513.3 440.7,521.9 436.2,508.1 
		447.9,499.5 433.4,499.5 	"/>
	<polygon class="st0" points="510.8,485.7 506.3,499.5 491.8,499.5 503.5,508.1 499,521.9 510.8,513.3 522.6,521.9 518.1,508.1 
		529.8,499.5 515.3,499.5 	"/>
	<polygon class="st0" points="146.7,534.4 142.2,520.6 137.8,534.4 123.2,534.4 123.5,534.6 123.2,534.6 134.9,543.1 130.5,556.8 
		130.6,556.7 130.5,557 142.2,548.4 154,557 153.9,556.7 154,556.8 149.6,543.1 161.3,534.6 161,534.6 161.3,534.4 	"/>
	<polygon class="st0" points="228.6,534.4 224.2,520.6 219.7,534.4 205.1,534.4 205.4,534.6 205.1,534.6 216.8,543.1 212.4,556.8 
		212.5,556.7 212.4,557 224.2,548.4 235.9,557 235.8,556.7 235.9,556.8 231.5,543.1 243.2,534.6 242.9,534.6 243.2,534.4 	"/>
	<polygon class="st0" points="310.5,534.4 306,520.6 301.6,534.4 287,534.4 287.3,534.6 287,534.6 298.7,543.1 294.3,556.8 
		294.4,556.7 294.3,557 306,548.4 317.8,557 317.7,556.7 317.8,556.8 313.4,543.1 325.1,534.6 324.8,534.6 325.1,534.4 	"/>
	<polygon class="st0" points="392.4,534.4 388,520.6 383.5,534.4 368.9,534.4 369.2,534.6 368.9,534.6 380.6,543.1 376.2,556.8 
		376.3,556.7 376.2,557 388,548.4 399.7,557 399.6,556.7 399.7,556.8 395.3,543.1 407,534.6 406.7,534.6 407,534.4 	"/>
	<polygon class="st0" points="474.3,534.4 469.8,520.6 465.4,534.4 450.8,534.4 451.1,534.6 450.8,534.6 462.5,543.1 458.1,556.8 
		458.2,556.7 458.1,557 469.9,548.4 481.6,557 481.5,556.7 481.6,556.8 477.2,543.1 488.9,534.6 488.6,534.6 488.9,534.4 	"/>
	<polygon class="st0" points="556.2,534.4 551.8,520.6 547.3,534.4 532.7,534.4 533,534.6 532.7,534.6 544.4,543.1 540,556.8 
		540.1,556.7 540,557 551.8,548.4 563.5,557 563.4,556.7 563.5,556.8 559.1,543.1 570.8,534.6 570.5,534.6 570.8,534.4 	"/>
	<polygon class="st0" points="183.2,555.7 178.7,569.5 164.2,569.5 175.9,578.1 171.4,591.9 183.2,583.3 195,591.9 190.5,578.1 
		202.2,569.5 187.7,569.5 	"/>
	<polygon class="st0" points="265.1,555.7 260.6,569.5 246.1,569.5 257.8,578.1 253.3,591.9 265.1,583.3 276.9,591.9 272.4,578.1 
		284.1,569.5 269.6,569.5 	"/>
	<polygon class="st0" points="347,555.7 342.5,569.5 328,569.5 339.7,578.1 335.2,591.9 347,583.3 358.8,591.9 354.3,578.1 
		366,569.5 351.5,569.5 	"/>
	<polygon class="st0" points="428.9,555.7 424.4,569.5 409.9,569.5 421.6,578.1 417.1,591.9 428.9,583.3 440.7,591.9 436.2,578.1 
		447.9,569.5 433.4,569.5 	"/>
	<polygon class="st0" points="510.8,555.7 506.3,569.5 491.8,569.5 503.5,578.1 499,591.9 510.8,583.3 522.6,591.9 518.1,578.1 
		529.8,569.5 515.3,569.5 	"/>
	<polygon class="st0" points="146.7,604.4 142.2,590.6 137.8,604.4 123.2,604.4 123.5,604.6 123.2,604.6 134.9,613.1 130.5,626.8 
		130.6,626.7 130.5,627 142.2,618.4 154,627 153.9,626.7 154,626.8 149.6,613.1 161.3,604.6 161,604.6 161.3,604.4 	"/>
	<polygon class="st0" points="228.6,604.4 224.2,590.6 219.7,604.4 205.1,604.4 205.4,604.6 205.1,604.6 216.8,613.1 212.4,626.8 
		212.5,626.7 212.4,627 224.2,618.4 235.9,627 235.8,626.7 235.9,626.8 231.5,613.1 243.2,604.6 242.9,604.6 243.2,604.4 	"/>
	<polygon class="st0" points="310.5,604.4 306,590.6 301.6,604.4 287,604.4 287.3,604.6 287,604.6 298.7,613.1 294.3,626.8 
		294.4,626.7 294.3,627 306,618.4 317.8,627 317.7,626.7 317.8,626.8 313.4,613.1 325.1,604.6 324.8,604.6 325.1,604.4 	"/>
	<polygon class="st0" points="392.4,604.4 388,590.6 383.5,604.4 368.9,604.4 369.2,604.6 368.9,604.6 380.6,613.1 376.2,626.8 
		376.3,626.7 376.2,627 388,618.4 399.7,627 399.6,626.7 399.7,626.8 395.3,613.1 407,604.6 406.7,604.6 407,604.4 	"/>
	<polygon class="st0" points="474.3,604.4 469.8,590.6 465.4,604.4 450.8,604.4 451.1,604.6 450.8,604.6 462.5,613.1 458.1,626.8 
		458.2,626.7 458.1,627 469.9,618.4 481.6,627 481.5,626.7 481.6,626.8 477.2,613.1 488.9,604.6 488.6,604.6 488.9,604.4 	"/>
	<polygon class="st0" points="556.2,604.4 551.8,590.6 547.3,604.4 532.7,604.4 533,604.6 532.7,604.6 544.4,613.1 540,626.8 
		540.1,626.7 540,627 551.8,618.4 563.5,627 563.4,626.7 563.5,626.8 559.1,613.1 570.8,604.6 570.5,604.6 570.8,604.4 	"/>
	<polygon class="st0" points="187.7,639.5 183.2,625.7 178.7,639.5 164.2,639.5 175.9,648.1 171.4,661.9 183.2,653.3 195,661.9 
		190.5,648.1 202.2,639.5 	"/>
	<polygon class="st0" points="269.6,639.5 265.1,625.7 260.6,639.5 246.1,639.5 257.8,648.1 253.3,661.9 265.1,653.3 276.9,661.9 
		272.4,648.1 284.1,639.5 	"/>
	<polygon class="st0" points="351.5,639.5 347,625.7 342.5,639.5 328,639.5 339.7,648.1 335.2,661.9 347,653.3 358.8,661.9 
		354.3,648.1 366,639.5 	"/>
	<polygon class="st0" points="433.4,639.5 428.9,625.7 424.4,639.5 409.9,639.5 421.6,648.1 417.1,661.9 428.9,653.3 440.7,661.9 
		436.2,648.1 447.9,639.5 	"/>
	<polygon class="st0" points="515.3,639.5 510.8,625.7 506.3,639.5 491.8,639.5 503.5,648.1 499,661.9 510.8,653.3 522.6,661.9 
		518.1,648.1 529.8,639.5 	"/>
	<polygon class="st0" points="146.7,674.6 142.2,660.8 137.8,674.6 123.2,674.6 135,683.2 130.5,697 142.2,688.4 154,697 
		149.5,683.2 161.3,674.6 	"/>
	<polygon class="st0" points="228.6,674.6 224.2,660.8 219.7,674.6 205.1,674.6 216.9,683.2 212.4,697 224.2,688.4 235.9,697 
		231.4,683.2 243.2,674.6 	"/>
	<polygon class="st0" points="310.5,674.6 306,660.8 301.6,674.6 287,674.6 298.8,683.2 294.3,697 306,688.4 317.8,697 313.3,683.2 
		325.1,674.6 	"/>
	<polygon class="st0" points="392.4,674.6 388,660.8 383.5,674.6 368.9,674.6 380.7,683.2 376.2,697 388,688.4 399.7,697 
		395.2,683.2 407,674.6 	"/>
	<polygon class="st0" points="474.3,674.6 469.8,660.8 465.4,674.6 450.8,674.6 462.6,683.2 458.1,697 469.9,688.4 481.6,697 
		477.1,683.2 488.9,674.6 	"/>
	<polygon class="st0" points="556.2,674.6 551.8,660.8 547.3,674.6 532.7,674.6 544.5,683.2 540,697 551.8,688.4 563.5,697 
		559,683.2 570.8,674.6 	"/>
</g>
</svg>
