<?xml version="1.0" encoding="utf-8"?>
<!-- Generator: Adobe Illustrator 19.1.0, SVG Export Plug-In . SVG Version: 6.00 Build 0)  -->
<svg version="1.1" id="Lager_1" xmlns="http://www.w3.org/2000/svg" xmlns:xlink="http://www.w3.org/1999/xlink" x="0px" y="0px"
	 viewBox="293.4 401.3 40 40" style="enable-background:new 293.4 401.3 40 40;" xml:space="preserve">
<style type="text/css">
	.st0{fill:#005597;}
	.st1{fill:#FFFFFF;}
	.st2{fill:#F8AB10;}
</style>
<g>
	<polygon class="st0" points="331,433.6 295.8,433.6 295.2,433.6 295.2,432.9 295.2,409.6 295.2,409 295.8,409 331,409 331.6,409 
		331.6,409.6 331.6,432.9 331.6,433.6 	"/>
	<polygon class="st1" points="331,432.9 295.8,432.9 295.8,409.6 331,409.6 	"/>
	<polygon class="st0" points="308.5,425.1 310.8,417.5 312.8,417.5 310.6,425.1 	"/>
	<path class="st0" d="M307.6,417.5l-1.8,3.2c-0.5,0.8-0.7,1.3-0.9,1.8h0c0-0.7-0.1-1.5-0.1-2l-0.2-3h-3.4l0,0.2
		c0.9,0,1.4,0.4,1.6,1.3l0.7,6h2.1l4.3-7.5L307.6,417.5L307.6,417.5z"/>
	<path class="st0" d="M323.5,425.1l-0.1-1.1h-2.6l-0.5,1.1h-2.2l4-7.5h2.7l0.7,7.5H323.5L323.5,425.1z M323.2,420.6
		c0-0.6,0-1.3,0-1.8h0c-0.1,0.4-0.7,1.5-0.9,2.1l-0.8,1.7h1.8L323.2,420.6L323.2,420.6z"/>
	<path class="st0" d="M315,425.3c-1.4,0-2.4-0.5-3.1-0.9l1-1.5c0.6,0.4,1.1,0.7,2.2,0.7c0.4,0,0.7-0.1,0.9-0.4
		c0.3-0.5-0.1-0.7-0.9-1.2l-0.4-0.2c-1.2-0.8-1.7-1.6-1.1-2.9c0.4-0.9,1.3-1.5,2.8-1.5c1.1,0,2.1,0.5,2.7,0.9l-1.1,1.3
		c-0.6-0.5-1-0.7-1.6-0.7c-0.4,0-0.8,0.2-0.9,0.4c-0.2,0.4,0.1,0.7,0.7,1.1l0.5,0.3c1.4,0.9,1.8,1.8,1.4,2.7
		C317.5,424.9,316.3,425.3,315,425.3L315,425.3z"/>
	<path class="st0" d="M326.2,418.6L326.2,418.6l-0.1-0.5h0.2c0.1,0,0.2,0,0.2,0.1s-0.1,0.1-0.1,0.1l0.1,0.2h-0.1l-0.1-0.2h-0.1
		V418.6L326.2,418.6z M326.3,418.2c0.1,0,0.1,0,0.1-0.1c0-0.1-0.1-0.1-0.1-0.1h-0.1v0.2H326.3L326.3,418.2z M326.3,418.8
		c-0.3,0-0.5-0.2-0.5-0.5c0-0.3,0.2-0.5,0.5-0.5s0.5,0.2,0.5,0.5C326.7,418.6,326.5,418.8,326.3,418.8L326.3,418.8z M326.3,417.9
		c-0.2,0-0.4,0.2-0.4,0.4s0.1,0.4,0.4,0.4c0.2,0,0.4-0.2,0.4-0.4S326.5,417.9,326.3,417.9L326.3,417.9z"/>
	<polygon class="st2" points="330.1,427.4 296.7,427.4 296.7,431.9 330.1,431.9 	"/>
	<polygon class="st0" points="330.1,410.8 296.7,410.8 296.7,415.2 330.1,415.2 	"/>
	<path class="st0" d="M329.3,431.6L329.3,431.6l-0.1-0.5h0.2c0.1,0,0.2,0,0.2,0.1s-0.1,0.1-0.1,0.1l0.1,0.2h-0.1l-0.1-0.2h-0.1
		L329.3,431.6L329.3,431.6z M329.4,431.3c0.1,0,0.1,0,0.1-0.1c0-0.1-0.1-0.1-0.1-0.1h-0.1v0.2H329.4L329.4,431.3z M329.4,431.8
		c-0.3,0-0.5-0.2-0.5-0.5c0-0.3,0.2-0.5,0.5-0.5s0.5,0.2,0.5,0.5S329.7,431.8,329.4,431.8L329.4,431.8z M329.4,430.9
		c-0.2,0-0.4,0.2-0.4,0.4s0.1,0.4,0.4,0.4c0.2,0,0.4-0.2,0.4-0.4S329.6,430.9,329.4,430.9L329.4,430.9z"/>
</g>
</svg>
