<?xml version="1.0" encoding="UTF-8"?>
<svg width="26px" height="18px" viewBox="0 0 26 18" version="1.1" xmlns="http://www.w3.org/2000/svg" xmlns:xlink="http://www.w3.org/1999/xlink">
    <!-- Generator: Sketch 54.1 (76490) - https://sketchapp.com -->
    <title>Croatia</title>
    <desc>Created with Sketch.</desc>
    <g id="Page-1" stroke="none" stroke-width="1" fill="none" fill-rule="evenodd">
        <g id="Croatia">
            <g id="Group">
                <rect id="Rectangle" fill="#D0011B" x="0" y="0" width="26" height="6"></rect>
                <rect id="Rectangle" fill="#FFFFFF" x="0" y="6" width="26" height="6"></rect>
                <rect id="Rectangle" fill="#0050A4" x="0" y="12" width="26" height="6"></rect>
            </g>
            <rect id="Rectangle-2" fill="#D0011B" fill-rule="nonzero" x="8" y="8" width="2" height="2"></rect>
            <rect id="Rectangle-2" fill="#FFFFFF" fill-rule="nonzero" x="10" y="8" width="2" height="2"></rect>
            <rect id="Rectangle-2" fill="#D0011B" fill-rule="nonzero" x="12" y="8" width="2" height="2"></rect>
            <rect id="Rectangle-2" fill="#FFFFFF" fill-rule="nonzero" x="14" y="8" width="2" height="2"></rect>
            <rect id="Rectangle-2" fill="#D0011B" fill-rule="nonzero" x="12" y="12" width="2" height="2"></rect>
            <rect id="Rectangle-2" fill="#D0011B" fill-rule="nonzero" x="16" y="8" width="2" height="2"></rect>
            <rect id="Rectangle-2" fill="#FFFFFF" fill-rule="nonzero" x="8" y="6" width="2" height="2"></rect>
            <rect id="Rectangle-2" fill="#D0011B" fill-rule="nonzero" x="10" y="6" width="2" height="2"></rect>
            <rect id="Rectangle-2" fill="#FFFFFF" fill-rule="nonzero" x="12" y="6" width="2" height="2"></rect>
            <rect id="Rectangle-2" fill="#D0011B" fill-rule="nonzero" x="14" y="6" width="2" height="2"></rect>
            <rect id="Rectangle-2" fill="#FFFFFF" fill-rule="nonzero" x="16" y="6" width="2" height="2"></rect>
            <rect id="Rectangle-2" fill="#D0011B" fill-rule="nonzero" x="10" y="10" width="2" height="2"></rect>
            <rect id="Rectangle-2" fill="#FFFFFF" fill-rule="nonzero" x="12" y="10" width="2" height="2"></rect>
            <rect id="Rectangle-2" fill="#D0011B" fill-rule="nonzero" x="14" y="10" width="2" height="2"></rect>
            <rect id="Rectangle" fill="#FFFFFF" x="8" y="10" width="2" height="1"></rect>
            <rect id="Rectangle" fill="#FFFFFF" x="9" y="11" width="1" height="1"></rect>
            <rect id="Rectangle" fill="#FFFFFF" x="10" y="12" width="2" height="1"></rect>
            <rect id="Rectangle" fill="#FFFFFF" x="11" y="13" width="1" height="1"></rect>
            <rect id="Rectangle" fill="#FFFFFF" x="16" y="11" width="1" height="1"></rect>
            <rect id="Rectangle" fill="#FFFFFF" x="16" y="10" width="2" height="1"></rect>
            <rect id="Rectangle" fill="#FFFFFF" x="14" y="13" width="1" height="1"></rect>
            <rect id="Rectangle" fill="#FFFFFF" x="14" y="12" width="2" height="1"></rect>
            <rect id="Rectangle" fill="#0095DE" x="8" y="2" width="2" height="4"></rect>
            <rect id="Rectangle" fill="#0095DE" x="12" y="2" width="2" height="4"></rect>
            <rect id="Rectangle" fill="#0050A4" x="14" y="2" width="2" height="4"></rect>
            <rect id="Rectangle" fill="#0095DE" x="16" y="2" width="2" height="4"></rect>
            <rect id="Rectangle" fill="#D0011B" x="10" y="2" width="2" height="1"></rect>
            <rect id="Rectangle" fill="#0050A4" x="10" y="3" width="2" height="1"></rect>
            <rect id="Rectangle" fill="#D0011B" x="10" y="4" width="2" height="1"></rect>
            <rect id="Rectangle" fill="#0050A4" x="10" y="5" width="2" height="1"></rect>
            <rect id="Rectangle" fill="#FFDD00" x="14" y="4" width="2" height="1"></rect>
            <rect id="Rectangle" fill="#D0011B" x="16" y="4" width="2" height="1"></rect>
            <rect id="Rectangle" fill="#FFDD00" x="8.5" y="2.5" width="1" height="1"></rect>
            <rect id="Rectangle" fill="#FFDD00" x="16.5" y="2.5" width="1" height="1"></rect>
            <rect id="Rectangle" fill="#FFDD00" x="12.5" y="4" width="1" height="1"></rect>
            <rect id="Rectangle" fill="#FFDD00" x="12" y="3" width="1" height="1"></rect>
            <rect id="Rectangle" fill="#FFDD00" x="13" y="3" width="1" height="1"></rect>
            <rect id="Rectangle" fill="#FFFFFF" x="8.5" y="5" width="1" height="1"></rect>
        </g>
    </g>
</svg>