<?xml version="1.0" encoding="UTF-8"?>
<svg width="26px" height="18px" viewBox="0 0 26 18" version="1.1" xmlns="http://www.w3.org/2000/svg" xmlns:xlink="http://www.w3.org/1999/xlink">
    <!-- Generator: Sketch 57.1 (83088) - https://sketch.com -->
    <title>cyprus</title>
    <desc>Created with Sketch.</desc>
    <g id="cyprus" stroke="none" stroke-width="1" fill="none" fill-rule="evenodd">
        <g id="Cyprus" fill-rule="nonzero">
            <rect id="Rectangle" fill="#FFFFFF" x="0" y="0" width="26" height="18"></rect>
            <polygon id="Path" fill="#FFC71D" points="7 6 8 6 8 7 9 7 9 6 10 6 10 7 11 7 11 5 12 5 12 7 16 7 16 6 18 6 18 5 19 5 19 4 20 4 20 5 19 5 19 6 18 6 18 7 17 7 17 8 16 8 16 9 17 9 17 10 12 10 12 11 11 11 11 10 8 10 8 9 7 9"></polygon>
            <polyline id="Path" fill="#417505" points="14 13 14 12 15 12 15 11 18 11 18 12 16 12 16 13 15 13 15 14 13 14 13 15 12 15 12 14 10 14 10 13 9 13 9 12 8 12 8 11 10 11 10 12 11 12 11 13"></polyline>
        </g>
    </g>
</svg>