<?xml version="1.0" encoding="UTF-8"?>
<svg width="26px" height="18px" viewBox="0 0 26 18" version="1.1" xmlns="http://www.w3.org/2000/svg" xmlns:xlink="http://www.w3.org/1999/xlink">
    <!-- Generator: Sketch 43.2 (39069) - http://www.bohemiancoding.com/sketch -->
    <title>slovenia</title>
    <desc>Created with Sketch.</desc>
    <defs></defs>
    <g id="Page-1" stroke="none" stroke-width="1" fill="none" fill-rule="evenodd">
        <g id="slovenia">
            <g id="slovenia_on_site-copy">
                <g id="Rectangle-9">
                    <g id="path-1-link" fill-rule="nonzero" fill="#FFFFFF">
                        <rect id="path-1" x="0" y="0" width="26" height="6"></rect>
                    </g>
                    <rect id="path-1" x="0" y="0" width="26" height="6"></rect>
                </g>
                <polygon id="Rectangle-9" fill="#1C379E" fill-rule="nonzero" points="26 6 26 12 0 12 0 6"></polygon>
                <polygon id="Rectangle-9" fill="#D0011B" fill-rule="nonzero" points="26 12 26 18 0 18 0 12"></polygon>
            </g>
            <rect id="Rectangle-2" fill="#D0011B" fill-rule="nonzero" x="3" y="3" width="1" height="6"></rect>
            <rect id="Rectangle-2-Copy-28" fill="#1C379E" fill-rule="nonzero" x="4" y="5" width="7" height="1"></rect>
            <rect id="Rectangle-2-Copy-2" fill="#FFFFFF" fill-rule="nonzero" x="7" y="5" width="1" height="5"></rect>
            <rect id="Rectangle-2-Copy-4" fill="#FFFFFF" fill-rule="nonzero" x="5" y="6" width="1" height="4"></rect>
            <rect id="Rectangle-2-Copy-7" fill="#FFFFFF" fill-rule="nonzero" x="9" y="6" width="1" height="4"></rect>
            <rect id="Rectangle-2-Copy-6" fill="#D0011B" fill-rule="nonzero" x="11" y="3" width="1" height="6"></rect>
            <rect id="Rectangle-2-Copy" fill="#D0011B" fill-rule="nonzero" x="4" y="9" width="1" height="1"></rect>
            <rect id="Rectangle-2-Copy-5" fill="#D0011B" fill-rule="nonzero" x="10" y="9" width="1" height="1"></rect>
            <rect id="Rectangle-2-Copy-24" fill="#1C379E" fill-rule="nonzero" x="4" y="2" width="7" height="1"></rect>
            <rect id="Rectangle-2-Copy-26" fill="#1C379E" fill-rule="nonzero" x="4" y="4" width="3" height="1"></rect>
            <rect id="Rectangle-2-Copy-27" fill="#1C379E" fill-rule="nonzero" x="8" y="4" width="3" height="1"></rect>
            <rect id="Rectangle-2-Copy-25" fill="#1C379E" fill-rule="nonzero" x="4" y="3" width="7" height="1"></rect>
            <rect id="Rectangle-2-Copy-3" fill="#D0011B" fill-rule="nonzero" x="5" y="10" width="5" height="1"></rect>
            <rect id="Rectangle-2-Copy-8" fill="#F8E71C" fill-rule="nonzero" x="5" y="2" width="1" height="1"></rect>
            <rect id="Rectangle-2-Copy-9" fill="#F8E71C" fill-rule="nonzero" x="9" y="2" width="1" height="1"></rect>
            <rect id="Rectangle-2-Copy-10" fill="#F8E71C" fill-rule="nonzero" x="7" y="4" width="1" height="1"></rect>
            <rect id="Rectangle-2-Copy-29" fill="#FFFFFF" fill-rule="nonzero" x="5" y="9" width="5" height="1"></rect>
            <rect id="Rectangle-2-Copy-31" fill="#FFFFFF" fill-rule="nonzero" x="5" y="7" width="5" height="1"></rect>
            <rect id="Rectangle-2-Copy-30" fill="#FFFFFF" fill-rule="nonzero" x="4" y="8" width="7" height="1"></rect>
        </g>
    </g>
</svg>