<?xml version="1.0" encoding="UTF-8"?>
<svg width="32px" height="20px" viewBox="0 0 32 20" version="1.1" xmlns="http://www.w3.org/2000/svg" xmlns:xlink="http://www.w3.org/1999/xlink">
    <title>south korea border</title>
    <g id="Page-1" stroke="none" stroke-width="1" fill="none" fill-rule="evenodd">
        <g id="south-korea-border">
            <rect id="Rectangle" fill="#FFFFFF" fill-rule="nonzero" x="1" y="1" width="30" height="18"></rect>
            <rect id="Rectangle" stroke="#CCCCCC" x="0.5" y="0.5" width="31" height="19"></rect>
            <g id="Group" transform="translate(6.000000, 1.787355)" fill-rule="nonzero">
                <polygon id="Rectangle" fill="#010101" transform="translate(15.234578, 3.269791) rotate(-33.683711) translate(-15.234578, -3.269791) " points="14.8625836 2.24380591 15.6065731 2.24380591 15.6065731 4.29577674 14.8625836 4.29577674"></polygon>
                <polygon id="Rectangle" fill="#010101" transform="translate(16.583458, 5.284117) rotate(-33.688478) translate(-16.583458, -5.284117) " points="16.2114428 4.258075 16.9554735 4.258075 16.9554735 6.31015964 16.2114428 6.31015964"></polygon>
                <polygon id="Rectangle" fill="#010101" transform="translate(16.841351, 3.656321) rotate(-33.683711) translate(-16.841351, -3.656321) " points="16.4693566 1.41535308 17.2133461 1.41535308 17.2133461 5.89728937 16.4693566 5.89728937"></polygon>
                <polygon id="Rectangle" fill="#010101" transform="translate(17.101813, 2.026042) rotate(-33.688478) translate(-17.101813, -2.026042) " points="16.7297978 1 17.4738285 1 17.4738285 3.05208464 16.7297978 3.05208464"></polygon>
                <polygon id="Rectangle" fill="#010101" transform="translate(18.444419, 4.044069) rotate(-33.688478) translate(-18.444419, -4.044069) " points="18.0724034 3.0180268 18.8164341 3.0180268 18.8164341 5.07011144 18.0724034 5.07011144"></polygon>
                <polygon id="Rectangle" fill="#010101" transform="translate(4.102642, 12.147319) rotate(-33.683711) translate(-4.102642, -12.147319) " points="3.73064683 9.90635088 4.47463626 9.90635088 4.47463626 14.3882872 3.73064683 14.3882872"></polygon>
                <polygon id="Rectangle" fill="#010101" transform="translate(2.502434, 11.758128) rotate(-33.688478) translate(-2.502434, -11.758128) " points="2.1304184 10.7320858 2.87444909 10.7320858 2.87444909 12.7841704 2.1304184 12.7841704"></polygon>
                <polygon id="Rectangle" fill="#010101" transform="translate(3.848194, 13.781034) rotate(-33.688478) translate(-3.848194, -13.781034) " points="3.4761782 12.7549912 4.22020889 12.7549912 4.22020889 14.8070758 3.4761782 14.8070758"></polygon>
                <polygon id="Rectangle" fill="#010101" transform="translate(2.239940, 13.395465) rotate(-33.683711) translate(-2.239940, -13.395465) " points="1.86794503 11.1544973 2.61193446 11.1544973 2.61193446 15.6364336 1.86794503 15.6364336"></polygon>
                <polygon id="Rectangle" fill="#010101" transform="translate(4.105494, 4.275780) rotate(-56.316289) translate(-4.105494, -4.275780) " points="1.8645258 3.90378511 6.34646209 3.90378511 6.34646209 4.64777453 1.8645258 4.64777453"></polygon>
                <polygon id="Rectangle" fill="#010101" transform="translate(3.172330, 3.651498) rotate(-56.316289) translate(-3.172330, -3.651498) " points="0.9313614 3.27950371 5.41329769 3.27950371 5.41329769 4.02349313 0.9313614 4.02349313"></polygon>
                <polygon id="Rectangle" fill="#010101" transform="translate(2.240968, 3.035381) rotate(-56.316289) translate(-2.240968, -3.035381) " points="1.19422773e-14 2.66338651 4.48193629 2.66338651 4.48193629 3.40737593 1.19422773e-14 3.40737593"></polygon>
                <polygon id="Rectangle" fill="#010101" transform="translate(15.235973, 13.159872) rotate(-56.311522) translate(-15.235973, -13.159872) " points="14.2099304 12.7878562 16.2620151 12.7878562 16.2620151 13.5318869 14.2099304 13.5318869"></polygon>
                <polygon id="Rectangle" fill="#010101" transform="translate(16.580478, 11.136245) rotate(-56.316289) translate(-16.580478, -11.136245) " points="15.5544925 10.7642502 17.6064634 10.7642502 17.6064634 11.5082396 15.5544925 11.5082396"></polygon>
                <polygon id="Rectangle" fill="#010101" transform="translate(16.167470, 13.775961) rotate(-56.311522) translate(-16.167470, -13.775961) " points="15.1414274 13.4039452 17.1935121 13.4039452 17.1935121 14.1479759 15.1414274 14.1479759"></polygon>
                <polygon id="Rectangle" fill="#010101" transform="translate(17.515101, 11.760017) rotate(-56.311522) translate(-17.515101, -11.760017) " points="16.4890586 11.3880016 18.5411433 11.3880016 18.5411433 12.1320323 16.4890586 12.1320323"></polygon>
                <polygon id="Rectangle" fill="#010101" transform="translate(17.100559, 14.400406) rotate(-56.311522) translate(-17.100559, -14.400406) " points="16.0745168 14.028391 18.1266015 14.028391 18.1266015 14.7724217 16.0745168 14.7724217"></polygon>
                <polygon id="Rectangle" fill="#010101" transform="translate(18.443282, 12.381081) rotate(-56.311522) translate(-18.443282, -12.381081) " points="17.4172394 12.0090652 19.4693241 12.0090652 19.4693241 12.7530959 17.4172394 12.7530959"></polygon>
                <path d="M6.31804014,5.72864532 C6.28804014,5.76197865 6.26804014,5.79531199 6.23804014,5.82864532 C6.25804014,5.79531199 6.28804014,5.76197865 6.31804014,5.72864532" id="Path" fill="#B51E3A"></path>
                <path d="M12.4920401,4.48664532 C10.4340401,3.11264532 7.65004014,3.67064532 6.28204014,5.72864532 C5.59804014,6.76064532 5.87404014,8.14664532 6.90604014,8.83664532 C7.93804014,9.52064532 9.32404014,9.24464532 10.0140401,8.21264532 C10.6980401,7.18064532 12.0900401,6.90464532 13.1220401,7.58864532 C14.1540401,8.27264532 14.4300401,9.66464532 13.7460401,10.6966453 C15.1080401,8.63864532 14.5500401,5.85464532 12.4920401,4.48664532" id="Path" fill="#B51E3A"></path>
                <path d="M6.28204014,5.72864532 C5.59804014,6.76064532 5.87404014,8.14664532 6.90604014,8.83664532 C7.93804014,9.52064532 9.32404014,9.24464532 10.0140401,8.21264532 C10.6980401,7.18064532 12.0900401,6.90464532 13.1220401,7.58864532 C14.1540401,8.27264532 14.4300401,9.66464532 13.7460401,10.6966453 C12.3720401,12.7546453 9.59404014,13.3126453 7.53604014,11.9386453 C5.47804014,10.5646453 4.90804014,7.78664532 6.28204014,5.72864532" id="Path" fill="#273775"></path>
            </g>
        </g>
    </g>
</svg>