<svg id="Layer_1" data-name="Layer 1" xmlns="http://www.w3.org/2000/svg" viewBox="0 0 143.25 69.25"><defs><style>.cls-1{fill:#5f5b5d;}</style></defs><title>theHYUNDAICOM</title><polygon class="cls-1" points="58.16 0 57.63 1.4 60.45 1.4 60.45 10.2 62.33 10.2 62.33 1.4 64.62 1.4 65.15 0 58.16 0"/><polygon class="cls-1" points="73.38 0 73.83 0.77 73.83 4.2 69.58 4.2 69.58 0 67.25 0 67.7 0.77 67.7 10.2 69.58 10.2 69.58 5.62 73.83 5.62 73.83 10.2 75.71 10.2 75.71 0 73.38 0"/><polygon class="cls-1" points="78.83 0 79.27 0.77 79.27 10.2 85.09 10.2 85.62 8.81 81.16 8.81 81.16 5.62 85.09 5.62 85.62 4.23 81.16 4.23 81.16 1.39 85.09 1.39 85.62 0 78.83 0"/><polygon class="cls-1" points="138.46 18.54 139.38 20.12 139.38 39.41 143.25 39.41 143.25 18.54 138.46 18.54"/><polygon class="cls-1" points="83.91 20.15 83.91 33.22 73.03 18.54 68.54 18.54 69.66 20.12 69.66 39.41 72.73 39.41 72.73 24.19 83.54 39.41 86.98 39.41 86.98 18.54 82.99 18.54 83.91 20.15"/><path class="cls-1" d="M417.42,348v15.83a6.29,6.29,0,0,1-3.35,1,4.92,4.92,0,0,1-4.88-5V346.41h-4.78l.91,1.57v13a6.82,6.82,0,0,0,7,6.77c2.86,0,4.56-.95,6.93-2.35a17.84,17.84,0,0,0,2-1.32V346.41h-4.78Z" transform="translate(-358.68 -327.86)"/><polygon class="cls-1" points="36.95 20.12 32.42 27.66 27 18.54 22.39 18.54 30.02 31.1 30.02 39.41 33.89 39.41 33.89 30.99 41.43 18.54 36.33 18.54 36.95 20.12"/><polygon class="cls-1" points="13.5 20.12 13.5 27.14 4.79 27.14 4.79 18.54 0 18.54 0.92 20.12 0.92 39.41 4.79 39.41 4.79 30.04 13.5 30.04 13.5 39.41 17.37 39.41 17.37 18.54 12.58 18.54 13.5 20.12"/><path class="cls-1" d="M460.62,346.41h-8.91l.92,1.58v19.29h6.24a10.24,10.24,0,0,0,5.2-1.35c.57-.32,1.14-.66,1.71-1a9.93,9.93,0,0,0-5.16-18.52Zm3,17.37a5.86,5.86,0,0,1-3.19.66H456.5v-15.2h2.17a8.06,8.06,0,0,1,8.12,8.12A7.54,7.54,0,0,1,463.58,363.78Z" transform="translate(-358.68 -327.86)"/><path class="cls-1" d="M480.19,346.41l.69,1.58-8.55,19.29h4.56l-.6-1.58,1.84-4.15h8.71l2.55,5.73h4.21l-9.23-20.87Zm-.81,12.32,3.13-7.05,3.12,7.05Z" transform="translate(-358.68 -327.86)"/><path class="cls-1" d="M414,395.85a10.69,10.69,0,0,1-1.65.73,10.09,10.09,0,0,1-1.76.4,18.53,18.53,0,0,1-2.31.13,10.54,10.54,0,0,1-4.07-.79,10.08,10.08,0,0,1-3.36-2.19,10.43,10.43,0,0,1-2.27-3.27,9.79,9.79,0,0,1-.85-4.07,9.93,9.93,0,0,1,1.38-5.14,10.33,10.33,0,0,1,3.8-3.77l.85-.5.86-.5a9.91,9.91,0,0,1,2.59-1.07,10.76,10.76,0,0,1,2.78-.36,14.08,14.08,0,0,1,2.86.28,13,13,0,0,1,2.74.92l-1.31,3.43a12.75,12.75,0,0,0-2.78-1.37,9.27,9.27,0,0,0-3-.46,11.27,11.27,0,0,0-1.75.13,3.87,3.87,0,0,0-1.59.61,5.46,5.46,0,0,0-1.5,1.29,7.57,7.57,0,0,0-1.08,1.67,8.79,8.79,0,0,0-.64,1.87,9.22,9.22,0,0,0-.21,1.94,8.33,8.33,0,0,0,.65,3.32,8.79,8.79,0,0,0,1.8,2.71,8.26,8.26,0,0,0,2.69,1.84,8.17,8.17,0,0,0,3.31.68,9.65,9.65,0,0,0,2.86-.39,13.15,13.15,0,0,0,2.63-1.16l.37,1.95c-.76.46-1.42.83-2,1.14" transform="translate(-358.68 -327.86)"/><path class="cls-1" d="M441.57,385.76a10.15,10.15,0,0,1-1.35,5.19,10.61,10.61,0,0,1-3.77,3.79l-.86.51-.85.49a10.41,10.41,0,0,1-2.59,1,11.32,11.32,0,0,1-2.75.33,10.5,10.5,0,0,1-4.09-.79,10,10,0,0,1-3.33-2.19,10.32,10.32,0,0,1-2.23-3.27,10.62,10.62,0,0,1,.53-9.23,10.43,10.43,0,0,1,3.77-3.78l.86-.52c.28-.17.57-.33.86-.48a10.49,10.49,0,0,1,5.34-1.4,10.75,10.75,0,0,1,4.09.78,10.3,10.3,0,0,1,3.32,2.18,10,10,0,0,1,2.23,3.27,10.08,10.08,0,0,1,.82,4.08m-3.95,1a8.91,8.91,0,0,0-.61-3.3,8.19,8.19,0,0,0-1.72-2.71,8.37,8.37,0,0,0-2.6-1.85,7.94,7.94,0,0,0-3.29-.68,12.66,12.66,0,0,0-1.64.11,4.19,4.19,0,0,0-1.54.57,5.9,5.9,0,0,0-1.48,1.29,7.72,7.72,0,0,0-1.05,1.69,9,9,0,0,0-.61,1.9,10,10,0,0,0-.2,1.95,8.65,8.65,0,0,0,.62,3.3,8.05,8.05,0,0,0,1.71,2.72,8.34,8.34,0,0,0,2.6,1.84,7.8,7.8,0,0,0,3.3.69,12.63,12.63,0,0,0,1.63-.1,4,4,0,0,0,1.54-.56,5.77,5.77,0,0,0,1.49-1.3,8.7,8.7,0,0,0,1-1.7,9,9,0,0,0,.61-1.9,9.38,9.38,0,0,0,.2-2" transform="translate(-358.68 -327.86)"/><polygon class="cls-1" points="104.41 68.81 104.41 54.13 98.21 62.59 96.38 62.59 90.18 54.16 90.18 68.81 87.12 68.81 87.12 49.84 85.84 48.02 90.55 48.02 97.78 57.87 105.01 48.02 108.27 48.02 108.27 68.81 104.41 68.81"/><path class="cls-1" d="M393.42,394.77a2.3,2.3,0,1,1-2.3-2.3,2.3,2.3,0,0,1,2.3,2.3" transform="translate(-358.68 -327.86)"/></svg>