<svg id="Layer_1" data-name="Layer 1" xmlns="http://www.w3.org/2000/svg" viewBox="0 0 68.59 68.59"><defs><style>.cls-1{fill:#fff;}</style></defs><title>icon_phon_select</title><path class="cls-1" d="M647.49,384.63a1.68,1.68,0,1,0,1.82,1.68A1.76,1.76,0,0,0,647.49,384.63Z" transform="translate(-613.2 -332.44)"/><rect class="cls-1" x="29.13" y="14.3" width="10.33" height="1.9"/><path class="cls-1" d="M613.2,332.44V401h68.59v-68.6Zm49.61,55a2.9,2.9,0,0,1-3,2.76H635.18a2.9,2.9,0,0,1-3-2.76V346a2.9,2.9,0,0,1,3-2.76H659.8a2.9,2.9,0,0,1,3,2.76Z" transform="translate(-613.2 -332.44)"/><rect class="cls-1" x="23.36" y="18.22" width="21.87" height="32.15"/></svg>