<svg xmlns="http://www.w3.org/2000/svg" id="Layer_3" viewBox="0 0 60.44 73.16">
    <defs>
        <style>
            .cls-1{fill:none;stroke:#6d665c;stroke-linecap:round;stroke-linejoin:round;stroke-width:3.5px}
        </style>
    </defs>
    <path d="M664.37 400.38s-9.24 1.67-20.61-7.42-7.27-22.73 4.25-31.21c10.45-7.71 16.81-22 13.18-30.91 0 0 16.21 11.67 19.69 29.7 0 0 3.64-7.43 2.88-18.94 0 0 32.87 55.6-19.39 58.78z" class="cls-1" transform="translate(-635.28 -329.09)"/>
    <path d="M663.91 399.32s-15.45-3.63-13.48-18.18 15-14.24 17-26.51a36.46 36.46 0 0 1 5.9 22.72A25.06 25.06 0 0 0 685 364.17s6 31.97-21.09 35.15z" class="cls-1" transform="translate(-635.28 -329.09)"/>
</svg>
