<svg id="_Layer_" data-name="&lt;Layer&gt;" xmlns="http://www.w3.org/2000/svg" viewBox="0 0 177.69 166.39"><title>nomem_black</title><path d="M776.46,1002.48H622.77a12,12,0,0,1-12-12V913.27a12,12,0,0,1,12-12H776.46a12,12,0,0,1,12,12v77.21A12,12,0,0,1,776.46,1002.48ZM622.77,911.27a2,2,0,0,0-2,2v77.21a2,2,0,0,0,2,2H776.46a2,2,0,0,0,2-2V913.27a2,2,0,0,0-2-2Z" transform="translate(-610.77 -836.09)"/><path d="M782.69,915.09a5,5,0,0,1-4.84-3.76L761.69,848.1c0-.08,0-.15-.05-.22a2.25,2.25,0,0,0-2.2-1.79H639.79a2.27,2.27,0,0,0-2.21,1.79,2.25,2.25,0,0,1-.05.22l-16.15,63.23a5,5,0,0,1-9.69-2.48l16.13-63.14a12.31,12.31,0,0,1,12-9.62H759.44a12.29,12.29,0,0,1,12,9.62l16.14,63.14a5,5,0,0,1-3.61,6.08A4.8,4.8,0,0,1,782.69,915.09Z" transform="translate(-610.77 -836.09)"/><path d="M699.59,937.77a5,5,0,0,1-5-5V841.09a5,5,0,0,1,10,0v91.68A5,5,0,0,1,699.59,937.77Z" transform="translate(-610.77 -836.09)"/><path d="M737.34,985.43a5,5,0,0,1-5-5V964.84a5,5,0,0,1,10,0v15.59A5,5,0,0,1,737.34,985.43Z" transform="translate(-610.77 -836.09)"/><path d="M751.48,985.43a5,5,0,0,1-5-5V964.84a5,5,0,0,1,10,0v15.59A5,5,0,0,1,751.48,985.43Z" transform="translate(-610.77 -836.09)"/><path d="M765.62,985.43a5,5,0,0,1-5-5V964.84a5,5,0,0,1,10,0v15.59A5,5,0,0,1,765.62,985.43Z" transform="translate(-610.77 -836.09)"/></svg>