<svg id="Layer_1" data-name="Layer 1" xmlns="http://www.w3.org/2000/svg" viewBox="0 0 37 37"><defs><style>.cls-1{fill:#ccc;}</style></defs><title>icon-google-my</title><path d="M25.92,30.79v2.86h3.9a3.57,3.57,0,0,1-3.9,2.87,4.29,4.29,0,0,1,0-8.58A4.1,4.1,0,0,1,28.72,29c.59-.59.54-.67,2.05-2.1a7.22,7.22,0,1,0-4.85,12.56c6,0,7.41-5.19,6.93-8.65Zm13,.14v-2.5H37.14v2.5H34.57v1.79h2.57v2.57h1.78V32.72h2.51V30.93Z" transform="translate(-11.56 -13.72)"/><path class="cls-1" d="M47.56,14.72v35h-35v-35h35m1-1h-37v37h37v-37Z" transform="translate(-11.56 -13.72)"/></svg>