<svg xmlns="http://www.w3.org/2000/svg" viewBox="0 0 66.26 66.26">
    <path fill="none" stroke="#6d665c" stroke-linecap="round" stroke-linejoin="round" stroke-width="3.5px" d="M811.57 254.14a31.37 31.37 0 0 0-49.5-25.61l-.32-.33L758 232l-3.74 3.73.33.33a31.36 31.36 0 0 0 25.61 49.49 31.23 31.23 0 0 0 18.11-5.76l.32.32 3.73-3.73 3.74-3.74-.32-.33a31.29 31.29 0 0 0 5.79-18.17zm-31.38-20.79a20.8 20.8 0 0 1 18 31.26l-28.43-28.44a20.7 20.7 0 0 1 10.43-2.82zm0 41.57a20.78 20.78 0 0 1-18-31.25l1.44 1.43 27 27a20.7 20.7 0 0 1-10.44 2.82z" transform="translate(-747.06 -221.01)"/>
</svg>
