<svg id="Layer_1" data-name="Layer 1" xmlns="http://www.w3.org/2000/svg" viewBox="0 0 37 37"><defs><style>.cls-1{fill:#020202;fill-rule:evenodd;}.cls-2{fill:#ccc;}</style></defs><title>icon-kakao-my</title><path class="cls-1" d="M32,38a10.2,10.2,0,0,1-1.48-.11l-3.34,2.29a.21.21,0,0,1-.15,0,.2.2,0,0,1-.16-.07.22.22,0,0,1-.06-.24L27.59,37a6.43,6.43,0,0,1-3.83-5.58c0-3.64,3.69-6.6,8.24-6.6s8.24,3,8.24,6.6S36.55,38,32,38Z" transform="translate(-13.5 -14)"/><path class="cls-2" d="M49.5,15V50h-35V15h35m1-1h-37V51h37V14Z" transform="translate(-13.5 -14)"/></svg>