<svg id="Layer_1" data-name="Layer 1" xmlns="http://www.w3.org/2000/svg" viewBox="0 0 68.59 68.59"><defs><style>.cls-1{fill:#fff;}</style></defs><title>icon_mail_select</title><path class="cls-1" d="M388.73,386v68.6h68.6V386Zm50.94,20.87L423.58,421.7a3.42,3.42,0,0,1-.55.41,3.15,3.15,0,0,1-.56-.42l-16.08-14.83Zm-37.18,26V408c0-.06,0-.16,0-.26h.17l13.67,12.6-13.66,12.59Zm3.9.87,12.22-11.27,2.53,2.33c1.47,1.31,2.35,1.24,3.76,0l2.55-2.35,12.22,11.27Zm37.18-.83-.16,0h0l-13.68-12.62,13.68-12.62h.06c.08.05.11.26.11.35Z" transform="translate(-388.73 -385.99)"/></svg>